<?xml version="1.0" encoding="UTF-8" standalone="no"?>
<!-- Generator: Adobe Illustrator 19.0.0, SVG Export Plug-In . SVG Version: 6.00 Build 0)  -->

<svg
   xmlns:dc="http://purl.org/dc/elements/1.1/"
   xmlns:cc="http://creativecommons.org/ns#"
   xmlns:rdf="http://www.w3.org/1999/02/22-rdf-syntax-ns#"
   xmlns:svg="http://www.w3.org/2000/svg"
   xmlns="http://www.w3.org/2000/svg"
   xmlns:sodipodi="http://sodipodi.sourceforge.net/DTD/sodipodi-0.dtd"
   xmlns:inkscape="http://www.inkscape.org/namespaces/inkscape"
   version="1.1"
   id="Layer_1"
   x="0px"
   y="0px"
   viewBox="0 0 460 460"
   style="enable-background:new 0 0 460 460;"
   xml:space="preserve"
   sodipodi:docname="airplane-dep.svg"
   inkscape:version="0.92.2 (5c3e80d, 2017-08-06)"
   inkscape:export-filename="C:\Users\adriana46\Documents\0esign\icons-travel\icons-travel-dl\my-icons-travel\airplane-dep.png"
   inkscape:export-xdpi="50"
   inkscape:export-ydpi="50"><metadata
     id="metadata34676"><rdf:RDF><cc:Work
         rdf:about=""><dc:format>image/svg+xml</dc:format><dc:type
           rdf:resource="http://purl.org/dc/dcmitype/StillImage" /><dc:title></dc:title></cc:Work></rdf:RDF></metadata><defs
     id="defs34674" /><sodipodi:namedview
     pagecolor="#ffffff"
     bordercolor="#666666"
     borderopacity="1"
     objecttolerance="10"
     gridtolerance="10"
     guidetolerance="10"
     inkscape:pageopacity="0"
     inkscape:pageshadow="2"
     inkscape:window-width="1920"
     inkscape:window-height="1001"
     id="namedview34672"
     showgrid="false"
     inkscape:zoom="0.54416478"
     inkscape:cx="1056.4483"
     inkscape:cy="202.53975"
     inkscape:window-x="-9"
     inkscape:window-y="-9"
     inkscape:window-maximized="1"
     inkscape:current-layer="Layer_1" /><path
     inkscape:connector-curvature="0"
     d="m 447.023,166.28318 v 0 l 1.328,4.958 v 0 c 2.446,9.127 -1.776,18.728 -10.155,23.095 l -16.759,8.735 c -20.676,10.777 -42.47,19.258 -64.991,25.293 l -114.575,30.7 c -66.788,17.896 -137.579,13.647 -201.748,-12.11 v 0 c -4.773,-2.756 -8.256,-7.295 -9.683,-12.619 -1.815,-6.773 2.205,-13.735 8.977,-15.549 l 9.117,-2.443 -39.276,-63.6 c -5.388,-8.724 -0.843,-20.176 9.062,-22.829 v 0 c 4.192,-1.123 8.663,-0.414 12.302,1.95 l 97.288,63.211 183.062,-49.051 c 16.447,-4.407 33.537,-5.905 50.5,-4.426 l 62.633,5.461 c 10.922,0.952 20.081,8.635 22.918,19.224 z"
     style="fill:#d7d5c8"
     id="XMLID_1388_" /><path
     inkscape:connector-curvature="0"
     d="m 435.073,150.58018 -32.062,8.591 c -12.398,3.322 -25.142,-4.036 -28.465,-16.434 v 0 l 49.559,4.321 c 3.963,0.346 7.687,1.587 10.968,3.522 z"
     style="fill:#5c676b"
     id="XMLID_1387_" /><path
     inkscape:connector-curvature="0"
     d="m 30.622,131.86318 97.288,63.211 -79.374,21.268 -39.278,-63.599 c -5.388,-8.724 -0.843,-20.176 9.062,-22.83 v 0 c 4.192,-1.123 8.663,-0.414 12.302,1.95 z"
     style="fill:#d24c4c;fill-opacity:1"
     id="XMLID_1385_" /><path
     inkscape:connector-curvature="0"
     d="m 77.392,180.25318 c -20.608,5.522 -41.537,1.027 -57.626,-10.496 l -10.508,-17.014 c -5.388,-8.724 -0.843,-20.176 9.062,-22.829 v 0 c 4.192,-1.123 8.663,-0.414 12.302,1.95 l 63.635,41.345 c -5.167,3.019 -10.806,5.42 -16.865,7.044 z"
     style="fill:#e95454;fill-opacity:1"
     id="XMLID_1384_" /><path
     inkscape:connector-curvature="0"
     d="m 447.023,166.28318 1.328,4.958 v 0 c 2.446,9.127 -1.776,18.728 -10.155,23.095 l -16.758,8.734 c -20.676,10.777 -42.47,19.258 -64.992,25.293 l -114.575,30.7 c -50.158,13.44 -102.574,14.388 -152.746,3.118 l 146.233,-39.183 -84.05,-127.3 c -5.609,-8.496 -1.247,-19.99 8.586,-22.625 v 0 c 4.115,-1.103 8.505,-0.393 12.063,1.95 l 178.052,117.254 90.681,-24.298 5.679,-1.522 z"
     style="fill:#bebcb2"
     id="XMLID_1383_" /><path
     inkscape:connector-curvature="0"
     d="m 159.84,100.27818 154.298,101.611 2.363,8.819 -78.778,21.109 -2.363,-8.819 -79.477,-120.372 c -0.2,-1.92 2.05,-3.603 3.957,-2.348 z"
     style="fill:#adaba3"
     id="XMLID_1381_" /><path
     inkscape:connector-curvature="0"
     d="m 460,405 v 0 c 0,5.523 -4.477,10 -10,10 H 10 C 4.477,415 0,410.523 0,405 v 0 c 0,-5.523 4.477,-10 10,-10 h 440 c 5.523,0 10,4.477 10,10 z"
     style="fill:#5c676b;fill-opacity:1"
     id="XMLID_1215_" /><g
     id="g34641" /><g
     id="g34643" /><g
     id="g34645" /><g
     id="g34647" /><g
     id="g34649" /><g
     id="g34651" /><g
     id="g34653" /><g
     id="g34655" /><g
     id="g34657" /><g
     id="g34659" /><g
     id="g34661" /><g
     id="g34663" /><g
     id="g34665" /><g
     id="g34667" /><g
     id="g34669" /></svg>