<?xml version="1.0" encoding="UTF-8" standalone="no"?>
<!-- Generator: Adobe Illustrator 19.0.0, SVG Export Plug-In . SVG Version: 6.00 Build 0)  -->

<svg
   xmlns:dc="http://purl.org/dc/elements/1.1/"
   xmlns:cc="http://creativecommons.org/ns#"
   xmlns:rdf="http://www.w3.org/1999/02/22-rdf-syntax-ns#"
   xmlns:svg="http://www.w3.org/2000/svg"
   xmlns="http://www.w3.org/2000/svg"
   xmlns:sodipodi="http://sodipodi.sourceforge.net/DTD/sodipodi-0.dtd"
   xmlns:inkscape="http://www.inkscape.org/namespaces/inkscape"
   version="1.1"
   id="Capa_1"
   x="0px"
   y="0px"
   viewBox="0 0 512.181 512.181"
   style="enable-background:new 0 0 512.181 512.181;"
   xml:space="preserve"
   sodipodi:docname="sun-umbrella.svg"
   inkscape:version="0.92.2 (5c3e80d, 2017-08-06)"
   inkscape:export-filename="C:\Users\adriana46\Documents\0esign\icons-travel\icons-travel-dl\my-icons-travel\sun-umbrella.png"
   inkscape:export-xdpi="50"
   inkscape:export-ydpi="50"><metadata
     id="metadata23159"><rdf:RDF><cc:Work
         rdf:about=""><dc:format>image/svg+xml</dc:format><dc:type
           rdf:resource="http://purl.org/dc/dcmitype/StillImage" /><dc:title></dc:title></cc:Work></rdf:RDF></metadata><defs
     id="defs23157" /><sodipodi:namedview
     pagecolor="#ffffff"
     bordercolor="#666666"
     borderopacity="1"
     objecttolerance="10"
     gridtolerance="10"
     guidetolerance="10"
     inkscape:pageopacity="0"
     inkscape:pageshadow="2"
     inkscape:window-width="1920"
     inkscape:window-height="1001"
     id="namedview23155"
     showgrid="true"
     inkscape:zoom="0.69116187"
     inkscape:cx="445.4595"
     inkscape:cy="180.0833"
     inkscape:window-x="-9"
     inkscape:window-y="-9"
     inkscape:window-maximized="1"
     inkscape:current-layer="Capa_1"
     inkscape:snap-global="false"><inkscape:grid
       type="xygrid"
       id="grid30974" /></sodipodi:namedview><g
     id="g31240"
     inkscape:export-xdpi="50"
     inkscape:export-ydpi="50"><path
       id="path23098"
       d="m 194.152,11.751 c -4.267,-9.6 -14.933,-13.867 -24.533,-10.667 -9.6,4.267 -13.867,14.933 -10.667,24.533 l 193.067,486.4 h 40.533 z"
       style="fill:#40596b"
       inkscape:connector-curvature="0" /><path
       inkscape:connector-curvature="0"
       style="fill:#ffcc5b;fill-opacity:1;stroke-width:0.92383701"
       d="m 253.91953,479.40439 c 20.76578,-0.14032 58.88055,3.97642 79.38613,5.32443 24.80991,1.81888 54.68231,2.54608 54.68231,2.54608 65.63353,7.57495 98.70055,8.1802 124.52804,25.5353 H 2.5587125 C 41.793463,486.44172 154.17677,497.51639 253.91953,479.40439 Z"
       id="path30976"
       sodipodi:nodetypes="cccccc" /><path
       sodipodi:nodetypes="cccccc"
       id="path13375"
       d="m 261.15519,492.42458 c -20.76578,-0.0856 -58.88055,2.42657 -79.38613,3.24919 -24.80991,1.10995 -54.68231,1.55372 -54.68231,1.55372 -65.633528,4.62255 -98.700551,4.9919 -124.5280375,15.58271 H 512.51601 C 473.28126,496.71905 360.89795,503.47728 261.15519,492.42458 Z"
       style="fill:#ffdb70;fill-opacity:1;stroke-width:0.72168279"
       inkscape:connector-curvature="0" /><g
       id="g23096"><path
         inkscape:connector-curvature="0"
         id="path23092"
         d="m 104.552,413.884 c -9.6,-6.4 -22.4,-3.2 -28.8,6.4 l -39.467,59.733 c -6.4,9.6 -3.2,22.4 6.4,28.8 9.6,6.4 22.4,3.2 28.8,-6.4 l 39.467,-59.733 c 6.4,-9.599 3.2,-22.399 -6.4,-28.8 z"
         style="fill:#c5d8de;fill-opacity:1" /><path
         inkscape:connector-curvature="0"
         id="path23094"
         d="m 477.885,480.018 -39.467,-59.733 c -6.4,-9.6 -19.2,-11.733 -28.8,-6.4 -9.6,6.4 -11.733,19.2 -6.4,28.8 l 39.467,59.733 c 6.4,9.6 19.2,11.733 28.8,6.4 9.6,-6.4 12.8,-19.2 6.4,-28.8 z"
         style="fill:#c5d8de;fill-opacity:1" /></g><polygon
       id="polygon23100"
       points="189.885,194.151 285.885,156.818 179.219,27.751 "
       style="fill:#e95454;fill-opacity:1" /><path
       id="path23102"
       d="m 189.885,194.151 7.467,20.267 c 10.667,26.667 40.533,39.467 66.133,28.8 26.667,-10.667 39.467,-40.533 28.8,-66.133 l -7.467,-20.267 z"
       style="fill:#d24c4c;fill-opacity:1"
       inkscape:connector-curvature="0" /><polygon
       id="polygon23104"
       points="179.219,27.751 285.885,156.818 380.819,118.418 180.285,27.751 "
       style="fill:#daeff6;fill-opacity:1" /><path
       id="path23106"
       d="m 180.285,27.751 v 0 l 200.533,90.667 94.933,-37.333 C 434.152,33.084 180.285,27.751 180.285,27.751 Z"
       style="fill:#e95454;fill-opacity:1"
       inkscape:connector-curvature="0" /><path
       id="path23108"
       d="m 285.885,156.818 7.467,20.267 c 10.667,26.667 40.533,39.467 66.133,28.8 26.667,-10.667 39.467,-40.533 28.8,-66.133 l -7.467,-20.267 z"
       style="fill:#c5d8de;fill-opacity:1"
       inkscape:connector-curvature="0" /><path
       id="path23110"
       d="m 380.819,118.418 7.467,20.267 c 10.667,26.667 40.533,39.467 66.133,28.8 26.667,-10.667 39.467,-40.533 28.8,-66.133 l -7.467,-20.267 z"
       style="fill:#d24c4c;fill-opacity:1"
       inkscape:connector-curvature="0" /><path
       id="path23112"
       d="m 179.219,28.818 c 0,0 -181.333,178.133 -179.2,241.067 l 94.933,-37.333 z"
       style="fill:#e95454;fill-opacity:1"
       inkscape:connector-curvature="0" /><polygon
       id="polygon23114"
       points="179.219,28.818 94.952,232.551 189.885,194.151 179.219,27.751 "
       style="fill:#daeff6;fill-opacity:1" /><path
       id="path23116"
       d="m 189.885,194.151 7.467,20.267 c 10.667,26.667 -2.133,56.533 -28.8,66.133 -26.667,10.667 -56.533,-2.133 -66.133,-28.8 l -7.467,-20.267 z"
       style="fill:#c5d8de;fill-opacity:1"
       inkscape:connector-curvature="0" /><path
       id="path23118"
       d="m 94.952,231.485 7.467,20.267 c 10.667,26.667 -2.133,56.533 -28.8,66.133 -26.667,10.667 -56.533,-2.133 -66.133,-28.8 l -7.467,-19.2 z"
       style="fill:#d24c4c;fill-opacity:1"
       inkscape:connector-curvature="0" /><path
       inkscape:connector-curvature="0"
       id="path23120"
       d="m 461.885,334.951 -108.8,54.4 H 21.352 v 42.667 h 337.067 c 3.2,0 6.4,-1.067 9.6,-2.133 l 113.067,-57.6 z"
       style="fill:#4cdbc4" /><path
       inkscape:connector-curvature="0"
       id="path23122"
       d="M 369.085,453.351 H 21.352 c -11.733,0 -21.333,-9.6 -21.333,-21.333 v 0 c 0,-11.733 9.6,-21.333 21.333,-21.333 h 342.4 l 117.333,-59.733 c 10.667,-5.333 23.467,-1.067 28.8,9.6 v 0 c 5.333,10.667 1.067,23.467 -9.6,28.8 l -121.6,61.867 c -3.2,2.132 -6.4,2.132 -9.6,2.132 z"
       style="fill:#daeff6;fill-opacity:1" /></g><g
     id="g23124" /><g
     id="g23126" /><g
     id="g23128" /><g
     id="g23130" /><g
     id="g23132" /><g
     id="g23134" /><g
     id="g23136" /><g
     id="g23138" /><g
     id="g23140" /><g
     id="g23142" /><g
     id="g23144" /><g
     id="g23146" /><g
     id="g23148" /><g
     id="g23150" /><g
     id="g23152" /></svg>