<?xml version="1.0" encoding="UTF-8" standalone="no"?>
<!-- Generator: Adobe Illustrator 19.0.0, SVG Export Plug-In . SVG Version: 6.00 Build 0)  -->

<svg
   xmlns:dc="http://purl.org/dc/elements/1.1/"
   xmlns:cc="http://creativecommons.org/ns#"
   xmlns:rdf="http://www.w3.org/1999/02/22-rdf-syntax-ns#"
   xmlns:svg="http://www.w3.org/2000/svg"
   xmlns="http://www.w3.org/2000/svg"
   xmlns:sodipodi="http://sodipodi.sourceforge.net/DTD/sodipodi-0.dtd"
   xmlns:inkscape="http://www.inkscape.org/namespaces/inkscape"
   version="1.1"
   id="Layer_1"
   x="0px"
   y="0px"
   viewBox="0 0 427.12799 465.91699"
   xml:space="preserve"
   sodipodi:docname="calendar.svg"
   inkscape:version="0.92.2 (5c3e80d, 2017-08-06)"
   inkscape:export-filename="C:\Users\adriana46\Documents\0esign\icons-travel\icons-travel-dl\my-icons-travel\travel-calendar.png"
   inkscape:export-xdpi="50"
   inkscape:export-ydpi="50"
   width="427.12799"
   height="465.91699"><metadata
     id="metadata33429"><rdf:RDF><cc:Work
         rdf:about=""><dc:format>image/svg+xml</dc:format><dc:type
           rdf:resource="http://purl.org/dc/dcmitype/StillImage" /><dc:title></dc:title></cc:Work></rdf:RDF></metadata><defs
     id="defs33427" /><sodipodi:namedview
     pagecolor="#ffffff"
     bordercolor="#666666"
     borderopacity="1"
     objecttolerance="10"
     gridtolerance="10"
     guidetolerance="10"
     inkscape:pageopacity="0"
     inkscape:pageshadow="2"
     inkscape:window-width="1920"
     inkscape:window-height="1001"
     id="namedview33425"
     showgrid="true"
     inkscape:showpageshadow="false"
     inkscape:zoom="1.0803091"
     inkscape:cx="-128.53079"
     inkscape:cy="154.27873"
     inkscape:window-x="-9"
     inkscape:window-y="-9"
     inkscape:window-maximized="1"
     inkscape:current-layer="Layer_1"><inkscape:grid
       type="xygrid"
       id="grid34477" /></sodipodi:namedview><g
     id="g33394"
     transform="translate(0,-25.609004)" /><g
     id="g33396"
     transform="translate(0,-25.609004)" /><g
     id="g33398"
     transform="translate(0,-25.609004)" /><g
     id="g33400"
     transform="translate(0,-25.609004)" /><g
     id="g33402"
     transform="translate(0,-25.609004)" /><g
     id="g33404"
     transform="translate(0,-25.609004)" /><g
     id="g33406"
     transform="translate(0,-25.609004)" /><g
     id="g33408"
     transform="translate(0,-25.609004)" /><g
     id="g33410"
     transform="translate(0,-25.609004)" /><g
     id="g33412"
     transform="translate(0,-25.609004)" /><g
     id="g33414"
     transform="translate(0,-25.609004)" /><g
     id="g33416"
     transform="translate(0,-25.609004)" /><g
     id="g33418"
     transform="translate(0,-25.609004)" /><g
     id="g33420"
     transform="translate(0,-25.609004)" /><g
     id="g33422"
     transform="translate(0,-25.609004)" /><style
     id="style29893">.st0{fill:#9cb6d8}</style><g
     id="g1892"
     transform="translate(-1.5640259e-4,-2.0365421e-5)"><path
       id="path33314"
       d="M 413.088,63.687 C 413.112,51.868 403.411,42.266 391.42,42.241 L 22.689,41.484 C 10.697,41.459 0.957,51.021 0.933,62.841 l -0.139,67.856 412.154,0.846 z"
       style="fill:#e95454;fill-opacity:1"
       inkscape:connector-curvature="0" /><path
       id="path33316"
       d="M 0.794,130.697 0.26,390.609 c -0.024,11.82 9.677,21.421 21.668,21.446 l 368.731,0.757 c 11.991,0.024 21.731,-9.537 21.755,-21.357 l 0.534,-259.912 z"
       style="fill:#e6e6e6"
       inkscape:connector-curvature="0" /><g
       id="g33322"><circle
         id="ellipse33318"
         cy="71.212997"
         cx="71.639999"
         style="fill:#d15241"
         r="19.542999" /><circle
         id="ellipse33320"
         cy="71.766998"
         cx="342.36499"
         style="fill:#d15241"
         r="19.542999" /></g><path
       id="path33324"
       d="m 71.784,0 -0.17,83.168 c 7.559,0.015 13.7,-6.012 13.716,-13.464 L 85.445,13.521 C 85.46,6.07 79.343,0.016 71.784,0 Z"
       style="fill:#e1e6e9"
       inkscape:connector-curvature="0" /><g
       id="g33330"><path
         id="path33326"
         d="m 58.068,13.465 -0.115,56.183 c -0.015,7.452 6.1,13.505 13.66,13.52 L 71.784,0 c -7.56,-0.015 -13.7,6.013 -13.716,13.465 z"
         style="fill:#ebf0f3"
         inkscape:connector-curvature="0" /><path
         id="path33328"
         d="m 328.779,14.02 -0.115,56.183 c -0.016,7.452 6.101,13.505 13.66,13.521 l 0.171,-83.168 c -7.56,-0.015 -13.701,6.013 -13.716,13.464 z"
         style="fill:#ebf0f3"
         inkscape:connector-curvature="0" /></g><path
       id="path33332"
       d="m 342.496,0.556 -0.171,83.168 c 7.559,0.015 13.7,-6.013 13.716,-13.465 l 0.116,-56.183 C 356.171,6.625 350.054,0.571 342.496,0.556 Z"
       style="fill:#e1e6e9"
       inkscape:connector-curvature="0" /><rect
       rx="10.307039"
       x="-235.43706"
       y="-221.20291"
       transform="rotate(-179.88541)"
       style="fill:#999999;stroke-width:1.48758912"
       width="56.894333"
       height="56.894333"
       id="rect33334"
       ry="10.307039" /><rect
       ry="10.307039"
       id="rect33974"
       height="56.894333"
       width="56.894333"
       style="fill:#ffcc5b;fill-opacity:1;stroke-width:1.48758912"
       transform="rotate(-179.88541)"
       y="-221.22139"
       x="-307.33725"
       rx="10.307039" /><rect
       rx="10.307039"
       x="-377.33759"
       y="-221.31099"
       transform="rotate(-179.88541)"
       style="fill:#ffcc5b;fill-opacity:1;stroke-width:1.48758912"
       width="56.894333"
       height="56.894333"
       id="rect33976"
       ry="10.307039" /><rect
       rx="10.307039"
       x="-91.486549"
       y="-300.07614"
       transform="rotate(-179.88541)"
       style="fill:#999999;stroke-width:1.48758912"
       width="56.894333"
       height="56.894333"
       id="rect33978"
       ry="10.307039" /><rect
       ry="10.307039"
       id="rect33984"
       height="56.894333"
       width="56.894333"
       style="fill:#19b2a4;fill-opacity:1;stroke-width:1.48758912"
       transform="rotate(-179.88541)"
       y="-299.93192"
       x="-163.60017"
       rx="10.307039" /><rect
       rx="10.307039"
       x="-235.59424"
       y="-299.78793"
       transform="rotate(-179.88541)"
       style="fill:#19b2a4;fill-opacity:1;stroke-width:1.48758912"
       width="56.894333"
       height="56.894333"
       id="rect34002"
       ry="10.307039" /><rect
       ry="10.307039"
       id="rect34006"
       height="56.894333"
       width="56.894333"
       style="fill:#999999;stroke-width:1.48758912"
       transform="rotate(-179.88541)"
       y="-299.64413"
       x="-307.49411"
       rx="10.307039" /><rect
       ry="10.307039"
       id="rect33986"
       height="56.894333"
       width="56.894333"
       style="fill:#999999;stroke-width:1.48758912"
       transform="rotate(-179.88541)"
       y="-381.34348"
       x="-91.649078"
       rx="10.307039" /><rect
       rx="10.307039"
       x="-163.75673"
       y="-378.20724"
       transform="rotate(-179.88541)"
       style="fill:#e95454;fill-opacity:1;stroke-width:1.48758912"
       width="56.894333"
       height="56.894333"
       id="rect33988"
       ry="10.307039" /><rect
       ry="10.307039"
       id="rect34000"
       height="56.894333"
       width="56.894333"
       style="fill:#999999;stroke-width:1.48758912"
       transform="rotate(-179.88541)"
       y="-378.06329"
       x="-235.75079"
       rx="10.307039" /><rect
       rx="0"
       ry="0"
       y="106.96379"
       x="0"
       height="24.579212"
       width="412.948"
       id="rect34103"
       style="opacity:1;fill:#d24c4c;fill-opacity:1;fill-rule:nonzero;stroke:none;stroke-width:5.34956408;stroke-miterlimit:4;stroke-dasharray:42.79651161, 10.6991279, 5.34956395, 10.6991279;stroke-dashoffset:0;stroke-opacity:1;paint-order:normal" /><rect
       rx="10.307039"
       x="-377.49399"
       y="-299.50415"
       transform="rotate(-179.88541)"
       style="fill:#999999;stroke-width:1.48758912"
       width="56.894333"
       height="56.894333"
       id="rect34475"
       ry="10.307039" /><rect
       x="-281.38098"
       y="-339.6225"
       transform="rotate(-179.88541)"
       style="fill:#d5d6db;stroke-width:0.74300998"
       width="28.417158"
       height="28.417158"
       id="rect33360" /><rect
       id="rect33364"
       height="28.41716"
       width="28.41716"
       style="fill:#e56353;stroke-width:0.74300998"
       transform="rotate(-179.88541)"
       y="-339.63251"
       x="-332.39667" /><circle
       id="ellipse33372"
       cy="367.98557"
       cx="329.19681"
       style="fill:#64798a;stroke-width:0.74300849"
       r="97.931496" /><circle
       id="ellipse33374"
       cy="367.98557"
       cx="329.19681"
       style="fill:#ffffff;stroke-width:0.74300849"
       r="79.92617" /><path
       id="path33376"
       d="m 253.15583,369.78068 c 0.0884,-43.06849 35.07372,-77.91113 78.14295,-77.82272 42.74082,0.0877 77.3613,34.54693 77.80042,77.16367 0.004,-0.32693 0.0267,-0.65014 0.0275,-0.97854 0.0906,-44.14957 -35.62651,-80.01385 -79.77757,-80.10524 -44.14956,-0.0906 -80.0131,35.62652 -80.10449,79.77683 -0.0906,44.1503 35.62652,80.01458 79.77608,80.10523 0.32841,7.4e-4 0.65162,-0.0193 0.97929,-0.0223 -42.616,-0.61447 -76.93184,-35.37612 -76.84417,-78.11694 z"
       style="fill:#e1e6e9;stroke-width:0.74300849"
       inkscape:connector-curvature="0" /><path
       id="path33378"
       d="m 369.80668,409.93211 c -0.45546,-0.001 -0.91093,-0.17609 -1.25717,-0.52382 l -51.75054,-51.96378 c -0.69472,-0.69695 -0.69174,-1.82409 0.005,-2.51806 0.69694,-0.69397 1.82408,-0.69174 2.51805,0.005 l 51.7498,51.96379 c 0.69472,0.69694 0.69249,1.82408 -0.004,2.51805 -0.34996,0.34699 -0.80468,0.51937 -1.26089,0.51862 z"
       style="fill:#e95454;fill-opacity:1;stroke-width:0.74300849"
       inkscape:connector-curvature="0" /><path
       id="path33380"
       d="m 331.87238,360.36379 0.0862,-42.01565 c 0.003,-1.47487 -1.19104,-2.67334 -2.66517,-2.67706 -1.47413,-0.003 -2.67335,1.19104 -2.67706,2.66592 l -0.0862,42.01564 c -2.01058,0.70214 -3.64966,2.16141 -4.58734,4.05088 l -32.0727,-0.0654 c -1.96823,-0.004 -3.56496,1.58558 -3.56867,3.55381 -0.004,1.96897 1.58558,3.56495 3.55381,3.56867 l 32.0727,0.0654 c 1.31884,2.68598 4.05237,4.55762 7.24062,4.5643 4.47291,0.01 8.11737,-3.62142 8.12703,-8.09359 0.007,-3.53226 -2.26915,-6.51618 -5.42322,-7.63292 z"
       style="fill:#64798a;stroke-width:0.74300849"
       inkscape:connector-curvature="0" /><circle
       id="ellipse33382"
       cy="367.9447"
       cx="329.1983"
       style="fill:#ffffff;stroke-width:0.74300849"
       r="4.5501842" /><path
       id="path34494"
       d="m 22.689453,41.484375 c -11.992,-0.025 -21.73185925,9.537422 -21.75585925,21.357422 L 0.79492188,130.69727 0.25976562,390.60938 c -0.0160714,7.91514 4.33160158,14.83116 10.80468738,18.54687 A 1105.5756,1077.098 0 0 1 400.02344,44.009766 c -2.63729,-1.130641 -5.54482,-1.763155 -8.60352,-1.769532 z"
       style="opacity:0.1;fill:#f9f9f9;fill-opacity:1"
       inkscape:connector-curvature="0" /></g></svg>