<?xml version="1.0" encoding="UTF-8" standalone="no"?>
<!-- Generator: Adobe Illustrator 19.0.0, SVG Export Plug-In . SVG Version: 6.00 Build 0)  -->

<svg
   xmlns:dc="http://purl.org/dc/elements/1.1/"
   xmlns:cc="http://creativecommons.org/ns#"
   xmlns:rdf="http://www.w3.org/1999/02/22-rdf-syntax-ns#"
   xmlns:svg="http://www.w3.org/2000/svg"
   xmlns="http://www.w3.org/2000/svg"
   xmlns:sodipodi="http://sodipodi.sourceforge.net/DTD/sodipodi-0.dtd"
   xmlns:inkscape="http://www.inkscape.org/namespaces/inkscape"
   version="1.1"
   id="Capa_1"
   x="0px"
   y="0px"
   viewBox="0 0 512.003 512.003"
   style="enable-background:new 0 0 512.003 512.003;"
   xml:space="preserve"
   sodipodi:docname="credit-cards.svg"
   inkscape:version="0.92.2 (5c3e80d, 2017-08-06)"><metadata
     id="metadata11034"><rdf:RDF><cc:Work
         rdf:about=""><dc:format>image/svg+xml</dc:format><dc:type
           rdf:resource="http://purl.org/dc/dcmitype/StillImage" /><dc:title></dc:title></cc:Work></rdf:RDF></metadata><defs
     id="defs11032" /><sodipodi:namedview
     pagecolor="#ffffff"
     bordercolor="#666666"
     borderopacity="1"
     objecttolerance="10"
     gridtolerance="10"
     guidetolerance="10"
     inkscape:pageopacity="0"
     inkscape:pageshadow="2"
     inkscape:window-width="1920"
     inkscape:window-height="1001"
     id="namedview11030"
     showgrid="false"
     inkscape:zoom="0.97779038"
     inkscape:cx="336.23076"
     inkscape:cy="238.01472"
     inkscape:window-x="-9"
     inkscape:window-y="-9"
     inkscape:window-maximized="1"
     inkscape:current-layer="Capa_1" /><g
     id="g11652"
     transform="rotate(5.4032667,-614.20557,472.74021)"><path
       id="path10957"
       d="M 2.095,229.395 71.999,25.907 C 78.911,5.779 100.815,-4.797 120.927,2.115 l 340.32,116.896 c 20.128,6.912 30.912,28.72 24,48.848 l -69.904,203.488 c -6.912,20.128 -28.816,30.704 -48.944,23.792 L 26.079,278.243 C 5.967,271.331 -4.817,249.523 2.095,229.395 Z"
       style="fill:#ff9734;fill-opacity:1"
       inkscape:connector-curvature="0" /><rect
       id="rect10959"
       height="436.98099"
       width="55.395"
       style="fill:#3e4347"
       transform="matrix(-0.3249,0.9458,-0.9458,-0.3249,535.936,117.5331)"
       y="31.562"
       x="198.321" /><g
       id="g10965"><rect
         id="rect10963"
         height="199.34427"
         width="16.02916"
         style="fill:#ffffff"
         transform="matrix(-0.3249,0.9457,-0.9457,-0.3249,624.8427,-142.5938)"
         y="84.165001"
         x="356.39401" /><rect
         x="52.153946"
         y="-458.49347"
         transform="rotate(108.96042)"
         style="fill:#ffffff;stroke-width:0.99995422"
         width="16.028427"
         height="199.33514"
         id="rect11640" /></g><path
       id="path10967"
       d="m 196.815,87.715 -14.864,43.28 c -1.76,5.136 -7.264,7.824 -12.256,6.112 l -57.792,-19.856 c -4.992,-1.712 -7.68,-7.2 -5.904,-12.352 l 14.864,-43.28 c 1.76,-5.152 7.264,-7.824 12.4,-6.064 l 57.504,19.744 c 5.136,1.776 7.824,7.264 6.048,12.416 z"
       style="fill:#e9eff4"
       inkscape:connector-curvature="0" /><path
       id="path10969"
       d="m 196.815,87.715 -14.864,43.28 c -1.76,5.136 -7.264,7.824 -12.256,6.112 l -57.792,-19.856 c -4.544,-1.568 -7.04,-6.144 -6.288,-10.784 40.336,11.152 78.112,1.12 86.688,-23.856 0.624,-1.824 1.104,-3.68 1.264,-5.648 3.232,2.448 4.656,6.656 3.248,10.752 z"
       style="fill:#dee4e9"
       inkscape:connector-curvature="0" /><path
       id="path10971"
       d="m 192.015,101.699 1.824,-5.296 -26.368,-9.056 c 0.544,-4.896 -1.68,-9.52 -5.856,-12.128 l 3.04,-8.88 -5.28,-1.808 -3.056,8.864 c -4.896,-0.512 -9.504,1.76 -12.096,5.968 l -26.352,-9.056 -1.824,5.296 25.84,8.88 -5.248,15.312 -25.856,-8.88 -1.808,5.296 26.352,9.056 c -0.544,4.896 1.696,9.536 5.888,12.128 l -3.04,8.864 5.296,1.824 3.056,-8.88 c 4.864,0.512 9.472,-1.76 12.048,-5.952 l 26.368,9.056 1.824,-5.296 -25.84,-8.88 5.264,-15.312 z m -37.328,7.344 c -1.296,3.776 -5.424,5.792 -9.2,4.512 h -0.016 c -3.776,-1.296 -5.776,-5.424 -4.48,-9.2 l 7.136,-20.768 c 1.296,-3.792 5.424,-5.824 9.2,-4.528 3.776,1.296 5.792,5.424 4.496,9.2 z"
       style="fill:#bbc7d1"
       inkscape:connector-curvature="0" /><g
       id="g10975"
       style="opacity:0.2"><path
         inkscape:connector-curvature="0"
         id="path10973"
         d="m 174.719,75.219 c -6.032,17.552 -34.416,23.872 -63.376,14.096 l 9.52,-27.696 c 1.76,-5.152 7.264,-7.824 12.4,-6.064 l 42.528,14.608 c -0.128,1.824 -0.496,3.392 -1.072,5.056 z"
         style="fill:#ffffff" /></g></g><path
     style="fill:#65b1ef"
     d="m 511.999,258.403 v 215.168 c 0,21.28 -17.28,38.4 -38.56,38.4 h -359.84 c -21.28,0 -38.56,-17.12 -38.56,-38.4 V 258.403 c 0,-21.28 17.28,-38.4 38.56,-38.4 h 359.84 c 21.28,0 38.56,17.12 38.56,38.4 z"
     id="path10977"
     inkscape:connector-curvature="0" /><path
     style="fill:#E24B4B;"
     d="M459.007,432.851c0,20.192-16.256,36.592-36.464,36.592c-20.32,0-36.592-16.4-36.592-36.592  c0-20.336,16.272-36.592,36.592-36.592C442.735,396.259,459.007,412.515,459.007,432.851z"
     id="path10979" /><path
     style="fill:#FFD93B;"
     d="M414.687,432.851c0,20.192-16.256,36.592-36.448,36.592c-20.336,0-36.592-16.4-36.592-36.592  c0-20.336,16.256-36.592,36.592-36.592C398.431,396.259,414.687,412.515,414.687,432.851z"
     id="path10981" /><path
     style="fill:#59A5E0;"
     d="M511.999,258.403v215.2c0,21.28-17.28,38.4-38.56,38.4h-359.84c-10.56,0-20.16-4.32-27.04-11.04  c198.08-4.8,379.52-119.36,419.52-263.2C509.759,243.683,511.999,250.723,511.999,258.403z"
     id="path10983" /><g
     id="g10989"><rect
       x="127.999"
       y="403.043"
       style="fill:#ffffff;stroke-width:1.176507"
       width="187.00674"
       height="17.68"
       id="rect10985" /><rect
       x="127.999"
       y="438.979"
       style="fill:#e6e6e6;stroke-width:1.17005515"
       width="184.96132"
       height="17.68"
       id="rect10987" /><path
       style="fill:#ffffff;fill-opacity:1;stroke-width:1.17005515"
       d="m 127.99805,438.97852 v 17.67968 h 160.64257 c 8.25886,-3.57655 16.36759,-7.34775 24.32032,-11.29687 v -6.38281 z"
       id="rect11633"
       inkscape:connector-curvature="0" /></g><rect
     x="75.039"
     y="283.955"
     style="fill:#5A5F63;"
     width="436.96"
     height="55.392"
     id="rect10991" /><path
     style="fill:#3E4347;"
     d="M487.647,283.955c-9.84,19.28-21.968,37.872-36.56,55.392h60.912v-55.392H487.647z"
     id="path10993" /><path
     style="fill:#D03F3F;"
     d="M459.007,432.851c0,20.192-16.256,36.592-36.464,36.592c-20.32,0-36.592-16.4-36.592-36.592  c0-20.336,16.272-36.592,36.592-36.592C442.735,396.259,459.007,412.515,459.007,432.851z"
     id="path10995" /><path
     style="fill:#F4C534;"
     d="M378.239,469.443c20.192,0,36.448-16.4,36.448-36.592c0-16.512-10.8-30.176-25.664-34.784  c-14.704,11.232-30.448,21.664-47.04,31.344c-0.112,1.152-0.336,2.256-0.336,3.44C341.647,453.043,357.903,469.443,378.239,469.443z  "
     id="path10997" /><g
     id="g10999" /><g
     id="g11001" /><g
     id="g11003" /><g
     id="g11005" /><g
     id="g11007" /><g
     id="g11009" /><g
     id="g11011" /><g
     id="g11013" /><g
     id="g11015" /><g
     id="g11017" /><g
     id="g11019" /><g
     id="g11021" /><g
     id="g11023" /><g
     id="g11025" /><g
     id="g11027" /><path
     style="fill:#D03F3F;"
     d="M 400.33594 403.69922 C 398.94234 404.75891 397.63892 405.92782 396.41406 407.17383 L 404.24609 407.17383 C 403.02473 405.9278 401.72478 404.75893 400.33594 403.69922 z M 394.76172 408.96484 C 394.15031 409.67624 393.57159 410.41599 393.01562 411.17383 L 407.63672 411.17383 C 407.08192 410.41575 406.50261 409.67647 405.89258 408.96484 L 394.76172 408.96484 z M 391.7793 412.96484 C 391.31489 413.68428 390.87512 414.42044 390.46094 415.17383 L 410.18359 415.17383 C 409.77015 414.42045 409.33063 413.68427 408.86719 412.96484 L 391.7793 412.96484 z M 389.55664 416.96484 C 389.20991 417.68706 388.89412 418.42604 388.59375 419.17383 L 412.04688 419.17383 C 411.74695 418.42607 411.43204 417.68698 411.08594 416.96484 L 389.55664 416.96484 z M 387.92578 420.96484 C 387.67772 421.68988 387.45763 422.42873 387.25391 423.17383 L 413.38477 423.17383 C 413.18126 422.42871 412.9626 421.68988 412.71484 420.96484 L 387.92578 420.96484 z M 386.81055 424.96484 C 386.65055 425.69243 386.51912 426.43027 386.40234 427.17383 L 414.23828 427.17383 C 414.12174 426.43023 413.98992 425.69245 413.83008 424.96484 L 386.81055 424.96484 z M 386.16211 428.96484 C 386.08408 429.69443 386.03321 430.43146 385.99805 431.17383 L 414.64062 431.17383 C 414.60539 430.43145 414.55436 429.69445 414.47656 428.96484 L 386.16211 428.96484 z M 385.95508 432.96484 C 385.95733 433.70631 385.98181 434.44333 386.02734 435.17383 L 414.61133 435.17383 C 414.65683 434.44332 414.68134 433.70633 414.68359 432.96484 L 385.95508 432.96484 z M 386.19141 436.96484 C 386.2743 437.70886 386.38515 438.44394 386.51172 439.17383 L 414.12695 439.17383 C 414.2534 438.44393 414.36444 437.70887 414.44727 436.96484 L 386.19141 436.96484 z M 386.86719 440.96484 C 387.03536 441.71112 387.23451 442.44556 387.44727 443.17383 L 413.19141 443.17383 C 413.40388 442.44555 413.60351 441.71112 413.77148 440.96484 L 386.86719 440.96484 z M 388.01953 444.96484 C 388.28112 445.71425 388.57503 446.44748 388.88281 447.17383 L 411.75781 447.17383 C 412.06502 446.44751 412.35795 445.71422 412.61914 444.96484 L 388.01953 444.96484 z M 389.71484 448.96484 C 390.08281 449.71719 390.48233 450.45116 390.89844 451.17383 L 409.74609 451.17383 C 410.16135 450.45105 410.56046 449.71732 410.92773 448.96484 L 389.71484 448.96484 z M 392 452.96484 C 392.49551 453.72218 393.02229 454.45651 393.57031 455.17383 L 407.08203 455.17383 C 407.62884 454.45636 408.15399 453.72233 408.64844 452.96484 L 392 452.96484 z M 395.0293 456.96484 C 395.69582 457.73199 396.4013 458.46482 397.12891 459.17383 L 403.5332 459.17383 C 404.25886 458.46475 404.96202 457.7322 405.62695 456.96484 L 395.0293 456.96484 z M 399.10352 460.96484 C 399.50797 461.3038 399.91576 461.6382 400.33594 461.95898 C 400.75499 461.63795 401.16296 461.30405 401.56641 460.96484 L 399.10352 460.96484 z "
     id="path11579" /></svg>