<?xml version="1.0" encoding="UTF-8" standalone="no"?>
<!-- Generator: Adobe Illustrator 19.0.0, SVG Export Plug-In . SVG Version: 6.00 Build 0)  -->

<svg
   xmlns:dc="http://purl.org/dc/elements/1.1/"
   xmlns:cc="http://creativecommons.org/ns#"
   xmlns:rdf="http://www.w3.org/1999/02/22-rdf-syntax-ns#"
   xmlns:svg="http://www.w3.org/2000/svg"
   xmlns="http://www.w3.org/2000/svg"
   xmlns:sodipodi="http://sodipodi.sourceforge.net/DTD/sodipodi-0.dtd"
   xmlns:inkscape="http://www.inkscape.org/namespaces/inkscape"
   version="1.1"
   id="Capa_1"
   x="0px"
   y="0px"
   viewBox="0 0 512 512"
   style="enable-background:new 0 0 512 512;"
   xml:space="preserve"
   sodipodi:docname="cruise3.svg"
   inkscape:version="0.92.2 (5c3e80d, 2017-08-06)"
   inkscape:export-filename="C:\Users\adriana46\Documents\0esign\icons-travel\icons-travel-dl\my-icons-travel\cruise3.png"
   inkscape:export-xdpi="50"
   inkscape:export-ydpi="50"><metadata
     id="metadata13442"><rdf:RDF><cc:Work
         rdf:about=""><dc:format>image/svg+xml</dc:format><dc:type
           rdf:resource="http://purl.org/dc/dcmitype/StillImage" /><dc:title /></cc:Work></rdf:RDF></metadata><defs
     id="defs13440" /><sodipodi:namedview
     pagecolor="#ffffff"
     bordercolor="#666666"
     borderopacity="1"
     objecttolerance="10"
     gridtolerance="10"
     guidetolerance="10"
     inkscape:pageopacity="0"
     inkscape:pageshadow="2"
     inkscape:window-width="1920"
     inkscape:window-height="1001"
     id="namedview13438"
     showgrid="false"
     inkscape:zoom="2.2000412"
     inkscape:cx="317.0087"
     inkscape:cy="96.134791"
     inkscape:window-x="-9"
     inkscape:window-y="-9"
     inkscape:window-maximized="1"
     inkscape:current-layer="Capa_1"
     showguides="false" /><rect
     rx="8.5334997"
     y="415.45383"
     style="fill:#b3b3b3;fill-opacity:1"
     width="512"
     height="17.066999"
     id="rect1532"
     x="0"
     ry="8.5334997" /><g
     id="g13407" /><g
     id="g13409" /><g
     id="g13411" /><g
     id="g13413" /><g
     id="g13415" /><g
     id="g13417" /><g
     id="g13419" /><g
     id="g13421" /><g
     id="g13423" /><g
     id="g13425" /><g
     id="g13427" /><g
     id="g13429" /><g
     id="g13431" /><g
     id="g13433" /><g
     id="g13435" /><style
     id="style29893">.st0{fill:#9cb6d8}</style><g
     id="g41366"
     transform="translate(0,0.041009)"><path
       id="path12688"
       d="M 253.76455,201.58683 78.34833,267.36976 c 0,0 -10.48885,66.61938 74.02153,148.04306 H 256 359.63014 c 84.51038,-81.42368 74.02153,-148.04306 74.02153,-148.04306 L 258.23545,201.58683 c -1.44342,-0.54036 -3.02749,-0.54036 -4.4709,0 z"
       style="fill:#ffdb70;fill-opacity:1;stroke-width:7.40215254"
       inkscape:connector-curvature="0" /><path
       id="path12690"
       d="M 293.01076,141.53316 H 218.98923 V 61.57511 c 0,-8.986213 7.28372,-16.269931 16.26994,-16.269931 h 41.48166 c 8.98621,0 16.26993,7.283718 16.26993,16.269931 z"
       style="fill:#d24c4c;fill-opacity:1;stroke-width:7.40215254"
       inkscape:connector-curvature="0" /><path
       id="path12692"
       d="m 253.76455,201.58683 c 1.44341,-0.54036 3.02748,-0.54036 4.4709,0 l 138.40545,51.9039 V 155.4196 c 0,-7.66863 -6.21781,-13.88644 -13.88644,-13.88644 H 129.24553 c -7.66863,0 -13.88643,6.21781 -13.88643,13.88644 v 98.07113 z"
       style="fill:#eea53d;fill-opacity:1;stroke-width:7.40215254"
       inkscape:connector-curvature="0" /><path
       id="path12694"
       d="m 355.92907,178.54393 h -14.80431 c -4.09339,0 -7.40215,-3.31617 -7.40215,-7.40215 0,-4.08599 3.30876,-7.40216 7.40215,-7.40216 h 14.80431 c 4.09338,0 7.40215,3.31617 7.40215,7.40216 0,4.08598 -3.30877,7.40215 -7.40215,7.40215 z m -37.01077,0 h -14.80431 c -4.09338,0 -7.40215,-3.31617 -7.40215,-7.40215 0,-4.08599 3.30877,-7.40216 7.40215,-7.40216 h 14.80431 c 4.09339,0 7.40215,3.31617 7.40215,7.40216 0,4.08598 -3.30876,7.40215 -7.40215,7.40215 z m -37.01076,0 h -14.80431 c -4.09339,0 -7.40215,-3.31617 -7.40215,-7.40215 0,-4.08599 3.30876,-7.40216 7.40215,-7.40216 h 14.80431 c 4.09338,0 7.40214,3.31617 7.40214,7.40216 0,4.08598 -3.30876,7.40215 -7.40214,7.40215 z m -37.01077,0 h -14.80431 c -4.09338,0 -7.40215,-3.31617 -7.40215,-7.40215 0,-4.08599 3.30877,-7.40216 7.40215,-7.40216 h 14.80431 c 4.0934,0 7.40215,3.31617 7.40215,7.40216 0,4.08598 -3.30875,7.40215 -7.40215,7.40215 z m -37.01076,0 H 193.0817 c -4.09339,0 -7.40215,-3.31617 -7.40215,-7.40215 0,-4.08599 3.30876,-7.40216 7.40215,-7.40216 h 14.80431 c 4.09339,0 7.40216,3.31617 7.40216,7.40216 0,4.08598 -3.30877,7.40215 -7.40216,7.40215 z m -37.01077,0 h -14.8043 c -4.09339,0 -7.40216,-3.31617 -7.40216,-7.40215 0,-4.08599 3.30877,-7.40216 7.40216,-7.40216 h 14.8043 c 4.0934,0 7.40216,3.31617 7.40216,7.40216 0,4.08598 -3.30876,7.40215 -7.40216,7.40215 z"
       style="fill:#ffffff;stroke-width:7.40215254"
       inkscape:connector-curvature="0" /><path
       id="path12696"
       d="M 253.76455,201.58683 78.34833,267.36976 c 0,0 -10.48885,66.61938 74.02153,148.04306 H 256 V 201.17971 c -0.75502,0 -1.51745,0.14064 -2.23545,0.40712 z"
       style="fill:#ffcc5b;fill-opacity:1;stroke-width:7.40215254"
       inkscape:connector-curvature="0" /><polyline
       id="polyline12698"
       points="11.5,33 30.5,26   48.5,33 "
       style="fill:none;stroke:#ffffff;stroke-width:2;stroke-linecap:round;stroke-miterlimit:10"
       transform="matrix(7.4021528,0,0,7.4021528,30.234335,45.305179)" /><path
       id="path12702"
       d="M 276.74083,45.305179 H 256 v 96.227981 h 37.01076 V 61.57511 c 0,-8.986213 -7.28372,-16.269931 -16.26993,-16.269931 z"
       style="fill:#e95454;fill-opacity:1;stroke-width:7.40215254"
       inkscape:connector-curvature="0" /><path
       id="path38043"
       d="m 256,201.18009 c -0.75502,0 -1.51833,0.13977 -2.23633,0.40625 L 78.347656,267.36955 c 0,0 -1.589441,10.27956 1.546875,27.64648 L 256,228.77189 Z"
       style="fill:#d24c4c;fill-opacity:1;stroke-width:7.40215254"
       inkscape:connector-curvature="0" /><path
       id="path38053"
       d="m 256,201.18205 c -0.33586,0 -0.67112,0.0308 -1.00391,0.084 v 27.31055 l 177.08008,66.61133 c 3.1783,-17.47164 1.57617,-27.81836 1.57617,-27.81836 L 258.23633,201.58634 c -0.72171,-0.27018 -1.47946,-0.40429 -2.23633,-0.40429 z"
       style="fill:#e95454;fill-opacity:1;stroke-width:7.40215254"
       inkscape:connector-curvature="0" /><path
       inkscape:connector-curvature="0"
       style="fill:#ffffff;stroke-width:7.40215254"
       d="m 355.92907,198.31629 h -14.80431 c -4.09339,0 -7.40215,-3.31617 -7.40215,-7.40215 0,-4.08599 3.30876,-7.40216 7.40215,-7.40216 h 14.80431 c 4.09338,0 7.40215,3.31617 7.40215,7.40216 0,4.08598 -3.30877,7.40215 -7.40215,7.40215 z m -37.01077,0 h -14.80431 c -4.09338,0 -7.40215,-3.31617 -7.40215,-7.40215 0,-4.08599 3.30877,-7.40216 7.40215,-7.40216 h 14.80431 c 4.09339,0 7.40215,3.31617 7.40215,7.40216 0,4.08598 -3.30876,7.40215 -7.40215,7.40215 z m -37.01076,0 h -14.80431 c -4.09339,0 -7.40215,-3.31617 -7.40215,-7.40215 0,-4.08599 3.30876,-7.40216 7.40215,-7.40216 h 14.80431 c 4.09338,0 7.40214,3.31617 7.40214,7.40216 0,4.08598 -3.30876,7.40215 -7.40214,7.40215 z m -37.01077,0 h -14.80431 c -4.09338,0 -7.40215,-3.31617 -7.40215,-7.40215 0,-4.08599 3.30877,-7.40216 7.40215,-7.40216 h 14.80431 c 4.0934,0 7.40215,3.31617 7.40215,7.40216 0,4.08598 -3.30875,7.40215 -7.40215,7.40215 z m -37.01076,0 H 193.0817 c -4.09339,0 -7.40215,-3.31617 -7.40215,-7.40215 0,-4.08599 3.30876,-7.40216 7.40215,-7.40216 h 14.80431 c 4.09339,0 7.40216,3.31617 7.40216,7.40216 0,4.08598 -3.30877,7.40215 -7.40216,7.40215 z m -37.01077,0 h -14.8043 c -4.09339,0 -7.40216,-3.31617 -7.40216,-7.40215 0,-4.08599 3.30877,-7.40216 7.40216,-7.40216 h 14.8043 c 4.0934,0 7.40216,3.31617 7.40216,7.40216 0,4.08598 -3.30876,7.40215 -7.40216,7.40215 z"
       id="path38454" /></g><rect
     ry="8.5334997"
     id="rect13379-5"
     height="17.066999"
     width="349.866"
     style="fill:#ffffff;fill-opacity:1;stroke-width:1.21007645"
     y="449.58682"
     x="76.800003"
     rx="8.5334997" /><rect
     ry="8.5334997"
     x="0"
     id="rect13389-9"
     height="17.066999"
     width="512"
     style="fill:#ffffff;fill-opacity:1"
     y="415.45383"
     rx="8.5334997" /><path
     style="fill:#d8e7ff;fill-opacity:1"
     d="M 8.5332031 415.45312 C 3.8056443 415.45312 0 419.26072 0 423.98828 C 0 428.71584 3.8056443 432.52148 8.5332031 432.52148 L 256 432.52148 L 256 415.45312 L 8.5332031 415.45312 z "
     id="rect1538" /><path
     style="fill:#d8e7ff;fill-opacity:1;stroke-width:1.21007645"
     d="M 85.333984 449.58594 C 80.606426 449.58594 76.800781 453.39353 76.800781 458.12109 C 76.800781 462.84865 80.606426 466.6543 85.333984 466.6543 L 256 466.6543 L 256 449.58594 L 85.333984 449.58594 z "
     id="rect1540" /></svg>