<?xml version="1.0" encoding="UTF-8" standalone="no"?>
<!-- Generator: Adobe Illustrator 19.0.0, SVG Export Plug-In . SVG Version: 6.00 Build 0)  -->

<svg
   xmlns:dc="http://purl.org/dc/elements/1.1/"
   xmlns:cc="http://creativecommons.org/ns#"
   xmlns:rdf="http://www.w3.org/1999/02/22-rdf-syntax-ns#"
   xmlns:svg="http://www.w3.org/2000/svg"
   xmlns="http://www.w3.org/2000/svg"
   xmlns:sodipodi="http://sodipodi.sourceforge.net/DTD/sodipodi-0.dtd"
   xmlns:inkscape="http://www.inkscape.org/namespaces/inkscape"
   version="1.1"
   id="Capa_1"
   x="0px"
   y="0px"
   viewBox="0 0 512 512"
   style="enable-background:new 0 0 512 512;"
   xml:space="preserve"
   sodipodi:docname="travel-hotel.svg"
   inkscape:version="0.92.2 (5c3e80d, 2017-08-06)"><metadata
     id="metadata42966"><rdf:RDF><cc:Work
         rdf:about=""><dc:format>image/svg+xml</dc:format><dc:type
           rdf:resource="http://purl.org/dc/dcmitype/StillImage" /><dc:title></dc:title></cc:Work></rdf:RDF></metadata><defs
     id="defs42964" /><sodipodi:namedview
     pagecolor="#ffffff"
     bordercolor="#666666"
     borderopacity="1"
     objecttolerance="10"
     gridtolerance="10"
     guidetolerance="10"
     inkscape:pageopacity="0"
     inkscape:pageshadow="2"
     inkscape:window-width="1920"
     inkscape:window-height="1001"
     id="namedview42962"
     showgrid="false"
     inkscape:snap-global="false"
     inkscape:zoom="0.9777961"
     inkscape:cx="44.108939"
     inkscape:cy="255.102"
     inkscape:window-x="-9"
     inkscape:window-y="-9"
     inkscape:window-maximized="1"
     inkscape:current-layer="Capa_1" /><g
     id="g42869"
     transform="matrix(0.94088807,0,0,0.94088807,15.132655,15.947396)"><rect
       y="166.39999"
       style="fill:#e8eaea"
       width="113.067"
       height="345.60001"
       id="rect42865"
       x="0" /><rect
       x="398.93301"
       y="166.39999"
       style="fill:#e8eaea"
       width="113.067"
       height="345.60001"
       id="rect42867" /></g><path
     inkscape:connector-curvature="0"
     style="fill:#e95454;stroke-width:0.94088805;fill-opacity:1"
     d="m 15.132655,178.53285 v 0 H 496.86735 v 0 c 0,-12.04336 -10.03646,-22.07982 -22.07982,-22.07982 H 37.212475 c -12.043367,0 -22.07982,10.03646 -22.07982,22.07982 z"
     id="path42871" /><rect
     x="121.51604"
     y="118.31602"
     style="fill:#f2f2f2;stroke-width:0.94088805"
     width="268.96884"
     height="379.36609"
     id="rect42873" /><rect
     style="opacity:1;fill:#e8eaea;fill-opacity:1;fill-rule:nonzero;stroke:none;stroke-width:6.06496477;stroke-miterlimit:4;stroke-dasharray:48.51971599, 12.129929, 6.0649645, 12.129929;stroke-dashoffset:0;stroke-opacity:1;paint-order:normal"
     id="rect43511"
     width="200.1488"
     height="62.546501"
     x="155.92607"
     y="41.883957"
     rx="9.2203388"
     ry="9.2203388" /><path
     inkscape:connector-curvature="0"
     style="fill:#e95454;stroke-width:0.94088805;fill-opacity:1"
     d="M 405.53816,96.236198 H 106.46184 c -6.02169,0 -11.039442,5.017752 -11.039442,11.039442 0,6.02168 5.017752,11.04038 11.039442,11.04038 h 299.07727 c 6.02168,0 11.03944,-5.01776 11.03944,-11.03944 0,-6.02169 -5.0187,-11.040382 -11.04039,-11.040382 z"
     id="path42875" /><g
     id="g42893"
     transform="matrix(0.94088807,0,0,0.94088807,15.132655,15.947396)"><rect
       x="32"
       y="198.39999"
       style="fill:#54c0eb"
       width="49.067001"
       height="54.400002"
       id="rect42877" /><rect
       x="32"
       y="274.133"
       style="fill:#54c0eb"
       width="49.067001"
       height="54.400002"
       id="rect42879" /><rect
       x="32"
       y="349.867"
       style="fill:#54c0eb"
       width="49.067001"
       height="54.400002"
       id="rect42881" /><rect
       x="32"
       y="425.60001"
       style="fill:#54c0eb"
       width="49.067001"
       height="54.400002"
       id="rect42883" /><rect
       x="430.93301"
       y="198.39999"
       style="fill:#54c0eb"
       width="49.067001"
       height="54.400002"
       id="rect42885" /><rect
       x="430.93301"
       y="274.133"
       style="fill:#54c0eb"
       width="49.067001"
       height="54.400002"
       id="rect42887" /><rect
       x="430.93301"
       y="349.867"
       style="fill:#54c0eb"
       width="49.067001"
       height="54.400002"
       id="rect42889" /><rect
       x="430.93301"
       y="425.60001"
       style="fill:#54c0eb"
       width="49.067001"
       height="54.400002"
       id="rect42891" /></g><rect
     x="151.62447"
     y="291.94092"
     style="fill:#84dbff;stroke-width:0.94088805"
     width="50.180382"
     height="51.184311"
     id="rect42895" /><rect
     x="201.80484"
     y="372.23065"
     style="fill:#ffcc5b;stroke-width:0.94088805;fill-opacity:1"
     width="107.38638"
     height="125.45142"
     id="rect42897" /><path
     style="fill:#ffdb70;stroke-width:0.94088805;fill-opacity:1"
     d="M 254.55273 372.23047 L 254.55273 497.68164 L 309.19141 497.68164 L 309.19141 372.23047 L 254.55273 372.23047 z "
     id="rect45195" /><rect
     rx="11.2"
     y="490.9241"
     style="fill:#acb3ba;stroke-width:0.96990341"
     width="511.90454"
     height="21.075891"
     id="rect42899"
     ry="11.2"
     x="0.30338749" /><g
     id="g42917"
     transform="matrix(0.94088807,0,0,0.94088807,15.132655,15.947396)"><rect
       x="145.067"
       y="141.867"
       style="fill:#84dbff"
       width="53.333"
       height="54.400002"
       id="rect42901" /><rect
       x="145.067"
       y="217.60001"
       style="fill:#84dbff"
       width="53.333"
       height="54.400002"
       id="rect42903" /><rect
       x="229.33299"
       y="141.867"
       style="fill:#84dbff"
       width="53.333"
       height="54.400002"
       id="rect42905" /><rect
       x="229.33299"
       y="217.60001"
       style="fill:#84dbff"
       width="53.333"
       height="54.400002"
       id="rect42907" /><rect
       x="229.33299"
       y="293.33301"
       style="fill:#84dbff"
       width="53.333"
       height="54.400002"
       id="rect42909" /><rect
       x="313.60001"
       y="141.867"
       style="fill:#84dbff"
       width="53.333"
       height="54.400002"
       id="rect42911" /><rect
       x="313.60001"
       y="217.60001"
       style="fill:#84dbff"
       width="53.333"
       height="54.400002"
       id="rect42913" /><rect
       x="313.60001"
       y="293.33301"
       style="fill:#84dbff"
       width="53.333"
       height="54.400002"
       id="rect42915" /></g><g
     id="g42929"
     transform="matrix(0.52680554,0,0,0.52680554,121.13825,54.437551)"><path
       style="fill:#40596b"
       d="m 147.2,1.067 h 13.867 V 64 H 147.2 V 39.467 H 121.6 V 64 H 107.733 V 1.067 H 121.6 v 26.667 h 25.6 z"
       id="path42919"
       inkscape:connector-curvature="0" /><path
       style="fill:#40596b"
       d="m 229.333,55.467 c -6.4,6.4 -13.867,9.6 -23.467,9.6 -9.6,0 -17.067,-3.2 -23.467,-9.6 -6.4,-6.4 -9.6,-13.867 -9.6,-23.467 0,-9.6 3.2,-17.067 9.6,-23.467 C 188.8,3.2 196.267,0 205.867,0 c 9.6,0 17.067,3.2 23.467,9.6 6.4,6.4 9.6,13.867 9.6,23.467 -0.001,8.533 -3.201,17.066 -9.601,22.4 z m -4.266,-22.4 c 0,-5.333 -2.133,-10.667 -5.333,-14.933 -3.2,-4.267 -8.533,-6.4 -13.867,-6.4 -5.334,0 -9.6,2.133 -13.867,6.4 -3.2,4.267 -5.333,8.533 -5.333,14.933 0,6.4 2.133,10.666 5.333,13.866 4.267,4.267 8.533,6.4 13.867,6.4 5.333,0 9.6,-2.133 13.867,-6.4 4.267,-4.267 5.333,-8.533 5.333,-13.866 z"
       id="path42921"
       inkscape:connector-curvature="0" /><path
       style="fill:#40596b"
       d="m 276.267,13.867 v 51.2 H 262.4 v -51.2 H 244.267 V 1.067 H 294.4 V 12.8 h -18.133 z"
       id="path42923"
       inkscape:connector-curvature="0" /><path
       style="fill:#40596b"
       d="m 349.867,1.067 v 12.8 h -32 v 12.8 h 28.8 V 38.4 h -28.8 v 12.8 h 32 V 64 H 302.934 V 1.067 Z"
       id="path42925"
       inkscape:connector-curvature="0" /><path
       style="fill:#40596b"
       d="m 363.733,65.067 v -64 H 377.6 V 51.2 h 26.667 V 64 h -40.533 v 1.067 z"
       id="path42927"
       inkscape:connector-curvature="0" /></g><g
     id="g42931" /><g
     id="g42933" /><g
     id="g42935" /><g
     id="g42937" /><g
     id="g42939" /><g
     id="g42941" /><g
     id="g42943" /><g
     id="g42945" /><g
     id="g42947" /><g
     id="g42949" /><g
     id="g42951" /><g
     id="g42953" /><g
     id="g42955" /><g
     id="g42957" /><g
     id="g42959" /><g
     transform="matrix(0.84685961,0,0,0.84685961,-45.118891,196.40714)"
     id="g44830"><path
       id="path13393"
       d="m 232.2985,349.866 c 0,-128 -51.2,-196.267 -51.2,-196.267 l -6.042,-9.242 -24.533,9.95 4.975,7.825 c 0,0 51.2,76.8 42.667,196.267 h 34.133 z"
       style="fill:#a3603e"
       inkscape:connector-curvature="0" /><path
       id="path13395"
       d="m 181.0985,153.6 -6.042,-9.242 -24.533,9.95 4.975,7.825 c 3.046,4.83 5.854,9.822 8.397,14.933 l 24.747,-11.597 c -2.313,-4.078 -4.83,-8.046 -7.544,-11.869 z"
       style="fill:#8f5436"
       inkscape:connector-curvature="0" /><path
       id="path13397"
       d="m 187.9255,143.001 69.973,-32.068 c -27.324,-16.340998 -62.549,-9.719 -82.082,15.42 l 30.882,-75.152995 c 0,0 -70.605,15.743997 -45.756,92.424995 l -0.964,0.401 c -15.522,-32.725 -54.639,-46.676998 -87.364,-31.147 -3.866,1.826 -7.543,4.036 -10.982,6.588 l 79.249,26.957 c -34.245,-3.721 -70.716,23.662 -70.716,58.376 l 77.312,-41.916 C 93.8885,198.28 129.8985,256 129.8985,256 l 27.537,-83.268 6.153,-18.586 -0.06,-0.162 1.015,-0.384 v 0.111 0 l 20.822,8.422 81.067,25.6 c -8.9,-33.792 -43.503,-53.965 -77.295,-45.065 -0.401,0.111 -0.811,0.222 -1.212,0.333 z"
       style="fill:#6f922d;fill-opacity:1"
       inkscape:connector-curvature="0" /><path
       inkscape:connector-curvature="0"
       style="fill:#88b337;fill-opacity:1"
       d="m 191.9255,149.001 69.973,-32.068 c -27.324,-16.341 -62.549,-9.719 -82.082,15.42 l 30.882,-75.152995 c 0,0 -70.605,15.743997 -45.756,92.424995 l -0.964,0.401 c -15.522,-32.725 -54.639,-46.677 -87.364,-31.147 -3.866,1.826 -7.543,4.036 -10.982,6.588 l 79.249,26.957 c -34.245,-3.721 -70.716,23.662 -70.716,58.376 l 77.312,-41.916 C 97.8885,204.28 133.8985,262 133.8985,262 l 27.537,-83.268 6.153,-18.586 -0.06,-0.162 1.015,-0.384 v 0.111 0 l 20.822,8.422 81.067,25.6 c -8.9,-33.792 -43.503,-53.965 -77.295,-45.065 -0.401,0.111 -0.811,0.222 -1.212,0.333 z"
       id="path14012" /></g><g
     transform="matrix(0.81334428,0,0,0.81334428,108.95616,231.36721)"
     id="g44863"><path
       id="path13369"
       d="m 317.6325,315.733 c -5.274,-71.091 7.185,-142.379 36.267,-207.462 L 330.9615,94.933002 C 294.8145,162.654 278.3705,239.146 283.4995,315.733 l 1.425,18.492 h 34.133 z"
       style="fill:#a3603e"
       inkscape:connector-curvature="0" /><path
       id="path13371"
       d="M 353.8985,108.271 330.9615,94.933002 C 325.5255,104.473 320.6785,114.346 316.4545,124.484 l 26.044,11.349 c 3.285,-9.395 7.091,-18.594 11.4,-27.562 z"
       style="fill:#8f5436"
       inkscape:connector-curvature="0" /><path
       id="path13373"
       d="m 361.0075,88.746002 76.092,-37.546997 c -32.111,-17.664 -72.465,-5.956 -90.138,26.154997 -2.031,3.686 -3.703,7.552 -4.992,11.554 l -0.981,-0.324 C 356.4505,9.173005 283.4995,-9.95e-4 283.4995,-9.95e-4 l 40.892,73.386997 c -22.366,-22.834997 -58.3,-25.283997 -83.558,-5.692 l 73.079,23.313 c -31.778,-3.763 -59.785,17.603998 -64.546,54.058998 l 85.333,-34.133 0.077,-0.23 v 0 l -0.077,0.23 51.2,85.333 c 0,0 28.962,-62.925 -30.976,-91.204 l 82.176,31.471 c -4.191,-34.517 -42.872,-56.174998 -76.092,-47.786998 z"
       style="fill:#6f922d;fill-opacity:1"
       inkscape:connector-curvature="0" /><path
       inkscape:connector-curvature="0"
       style="fill:#88b337;fill-opacity:1"
       d="m 363.0075,98.746002 76.092,-37.546997 c -32.111,-17.664 -72.465,-5.956 -90.138,26.154997 -2.031,3.686 -3.703,7.552 -4.992,11.554 l -0.981,-0.324 C 358.4505,19.173005 285.4995,9.999005 285.4995,9.999005 l 40.892,73.386997 c -22.366,-22.834997 -58.3,-25.283997 -83.558,-5.692 l 73.079,23.312998 c -31.778,-3.762998 -59.785,17.604 -64.546,54.059 l 85.333,-34.133 0.077,-0.23 v 0 l -0.077,0.23 51.2,85.333 c 0,0 28.962,-62.925 -30.976,-91.204 l 82.176,31.471 c -4.191,-34.517 -42.872,-56.174998 -76.092,-47.786998 z"
       id="path14010" /></g><path
     id="path45193"
     d="m 155.81311,49.759362 v 0 h 200.37472 v 0 c 0,-9.533114 -4.17461,-17.477633 -9.18397,-17.477633 H 164.99709 c -5.00937,0 -9.18398,7.944519 -9.18398,17.477633 z"
     style="fill:#e95454;fill-opacity:1;stroke-width:0.53988218"
     inkscape:connector-curvature="0" /></svg>