<?xml version="1.0" encoding="UTF-8" standalone="no"?>
<!-- Generator: Adobe Illustrator 19.0.0, SVG Export Plug-In . SVG Version: 6.00 Build 0)  -->

<svg
   xmlns:dc="http://purl.org/dc/elements/1.1/"
   xmlns:cc="http://creativecommons.org/ns#"
   xmlns:rdf="http://www.w3.org/1999/02/22-rdf-syntax-ns#"
   xmlns:svg="http://www.w3.org/2000/svg"
   xmlns="http://www.w3.org/2000/svg"
   xmlns:sodipodi="http://sodipodi.sourceforge.net/DTD/sodipodi-0.dtd"
   xmlns:inkscape="http://www.inkscape.org/namespaces/inkscape"
   version="1.1"
   id="Capa_1"
   x="0px"
   y="0px"
   viewBox="0 0 512 512"
   style="enable-background:new 0 0 512 512;"
   xml:space="preserve"
   sodipodi:docname="placeholder.svg"
   inkscape:version="0.92.2 (5c3e80d, 2017-08-06)"
   inkscape:export-filename="C:\Users\adriana46\Documents\0esign\icons-travel\icons-travel-dl\my-icons-travel\placeholder.png"
   inkscape:export-xdpi="50"
   inkscape:export-ydpi="50"><metadata
     id="metadata35698"><rdf:RDF><cc:Work
         rdf:about=""><dc:format>image/svg+xml</dc:format><dc:type
           rdf:resource="http://purl.org/dc/dcmitype/StillImage" /><dc:title></dc:title></cc:Work></rdf:RDF></metadata><defs
     id="defs35696" /><sodipodi:namedview
     pagecolor="#ffffff"
     bordercolor="#666666"
     borderopacity="1"
     objecttolerance="10"
     gridtolerance="10"
     guidetolerance="10"
     inkscape:pageopacity="0"
     inkscape:pageshadow="2"
     inkscape:window-width="1920"
     inkscape:window-height="1001"
     id="namedview35694"
     showgrid="false"
     inkscape:zoom="0.48889805"
     inkscape:cx="336.95722"
     inkscape:cy="103.19456"
     inkscape:window-x="-9"
     inkscape:window-y="-9"
     inkscape:window-maximized="1"
     inkscape:current-layer="Capa_1" /><polygon
     style="fill:#e6e6e6"
     points="512,511.867 0,511.867 89.6,328.4 422.4,328.4 "
     id="polygon35643" /><polygon
     style="fill:#19b2a4;fill-opacity:1"
     points="41.6,488.4 105.6,339.067 406.4,339.067 470.4,488.4 "
     id="polygon35645" /><g
     id="g35651"
     style="fill:#3090d8;fill-opacity:1"><polygon
       style="fill:#3090d8;fill-opacity:1"
       points="202.667,412.667 194.133,488.4 470.4,488.4 462.933,473.467 "
       id="polygon35647" /><polygon
       style="fill:#3090d8;fill-opacity:1"
       points="193.067,400.933 202.667,339.067 105.6,339.067 90.667,375.333 "
       id="polygon35649" /></g><g
     id="g35657"
     style="fill:#ffcc5b;fill-opacity:1"><polygon
       style="fill:#ffcc5b;fill-opacity:1"
       points="160,488.4 210.133,488.4 224,339.067 188.8,339.067 "
       id="polygon35653" /><polygon
       style="fill:#ffcc5b;fill-opacity:1"
       points="457.6,458.533 93.867,366.8 83.2,391.333 445.867,488.4 470.4,488.4 "
       id="polygon35655" /></g><g
     id="g35663" /><g
     id="g35665" /><g
     id="g35667" /><g
     id="g35669" /><g
     id="g35671" /><g
     id="g35673" /><g
     id="g35675" /><g
     id="g35677" /><g
     id="g35679" /><g
     id="g35681" /><g
     id="g35683" /><g
     id="g35685" /><g
     id="g35687" /><g
     id="g35689" /><g
     id="g35691" /><g
     id="g36864"
     transform="matrix(0.76773581,0,0,0.76773581,59.320372,75.326479)"><path
       id="path35661"
       d="m 167.467,166.267 c 0,-49.067 39.467,-88.533 88.533,-88.533 49.066,0 88.533,39.467 88.533,88.533 0,49.066 -39.466,88.533 -88.533,88.533 -49.067,0 -88.533,-39.467 -88.533,-88.533 z"
       style="fill:#ffffff"
       inkscape:connector-curvature="0" /><g
       inkscape:label="Layer 1"
       id="layer1"
       transform="matrix(2.2335481,0,0,2.2335481,104.11475,-267.84146)"><g
         id="g6359"
         transform="matrix(2.8367005,0,0,2.8367005,-542.05785,-151.01072)"><path
           inkscape:connector-curvature="0"
           id="path6337"
           transform="matrix(0.26458333,0,0,0.26458333,0,85.333343)"
           d="m 812.46484,94.355469 a 62.578947,62.578947 0 0 0 -62.57812,62.580081 62.578947,62.578947 0 0 0 6.125,26.85937 129.22377,32.350137 0 0 1 -0.0156,-0.004 c 0.0678,0.13781 0.12558,0.26448 0.19336,0.40234 0.002,0.005 0.005,0.009 0.008,0.0137 a 62.578947,62.578947 0 0 0 0.89843,1.81055 62.578947,62.578947 0 0 0 0.004,0.01 c 16.42129,32.81652 49.76525,87.91602 55.36523,87.91602 5.464,0 37.32544,-52.43481 54.125,-85.4668 a 129.22377,32.350137 0 0 1 -0.15625,0.0117 62.578947,62.578947 0 0 0 8.61133,-31.55273 62.578947,62.578947 0 0 0 -62.58008,-62.580081 z m 50.58789,99.312501 a 62.578945,62.578945 0 0 1 -0.15039,0.19726 62.578947,62.578947 0 0 0 0.15039,-0.19726 z m -3.87695,4.82031 a 62.578945,62.578945 0 0 1 -0.33203,0.35547 62.578947,62.578947 0 0 0 0.33203,-0.35547 z m -4.33398,4.41211 a 62.578945,62.578945 0 0 1 -0.54883,0.48242 62.578947,62.578947 0 0 0 0.54883,-0.48242 z m -4.73047,3.95117 a 62.578945,62.578945 0 0 1 -0.84961,0.60742 62.578947,62.578947 0 0 0 0.84961,-0.60742 z M 845,210.32617 a 62.578945,62.578945 0 0 1 -1.13867,0.65235 A 62.578947,62.578947 0 0 0 845,210.32617 Z m -5.41992,2.94727 a 62.578945,62.578945 0 0 1 -1.45313,0.65234 62.578947,62.578947 0 0 0 1.45313,-0.65234 z m -5.66797,2.39648 a 62.578945,62.578945 0 0 1 -1.87695,0.62305 62.578947,62.578947 0 0 0 1.87695,-0.62305 z m -5.85547,1.82031 a 62.578945,62.578945 0 0 1 -2.29883,0.51563 62.578947,62.578947 0 0 0 2.29883,-0.51563 z m -6.04297,1.2461 a 62.578945,62.578945 0 0 1 -2.63672,0.32031 62.578947,62.578947 0 0 0 2.63672,-0.32031 z m -6.37695,0.66601 a 62.578945,62.578945 0 0 1 -3.17188,0.11133 62.578947,62.578947 0 0 0 3.17188,-0.11133 z"
           style="fill:#e95454;fill-opacity:1;fill-rule:evenodd;stroke-width:0.99999994" /><path
           inkscape:connector-curvature="0"
           id="path6351"
           transform="matrix(0.26458333,0,0,0.26458333,0,85.333343)"
           d="m 812.46484,94.355469 a 62.578946,62.578946 0 0 0 -1.06054,0.05273 V 273.50391 c 0.41326,0.26594 0.78048,0.43945 1.06054,0.43945 5.464,0 37.32544,-52.43481 54.125,-85.4668 a 129.22377,32.350137 0 0 1 -0.15625,0.0117 62.578946,62.578946 0 0 0 8.61133,-31.55273 62.578946,62.578946 0 0 0 -62.58008,-62.580081 z"
           style="fill:#d24c4c;fill-opacity:1;fill-rule:evenodd;stroke-width:0.99999994" /><circle
           style="opacity:1;fill:#f3f3f3;fill-opacity:1;fill-rule:nonzero;stroke:none;stroke-width:0.20137031;stroke-miterlimit:4;stroke-dasharray:0.80548126, 0.20137031;stroke-dashoffset:0;stroke-opacity:1;paint-order:normal"
           id="circle6348"
           cx="214.96487"
           cy="126.85567"
           r="10.8406" /></g></g></g><style
     id="style29893">.st0{fill:#9cb6d8}</style></svg>