<?xml version="1.0" encoding="UTF-8" standalone="no"?>
<!-- Generator: Adobe Illustrator 19.0.0, SVG Export Plug-In . SVG Version: 6.00 Build 0)  -->

<svg
   xmlns:dc="http://purl.org/dc/elements/1.1/"
   xmlns:cc="http://creativecommons.org/ns#"
   xmlns:rdf="http://www.w3.org/1999/02/22-rdf-syntax-ns#"
   xmlns:svg="http://www.w3.org/2000/svg"
   xmlns="http://www.w3.org/2000/svg"
   xmlns:sodipodi="http://sodipodi.sourceforge.net/DTD/sodipodi-0.dtd"
   xmlns:inkscape="http://www.inkscape.org/namespaces/inkscape"
   version="1.1"
   id="Layer_1"
   x="0px"
   y="0px"
   viewBox="0 0 499 416"
   xml:space="preserve"
   sodipodi:docname="airplane-ticket.svg"
   width="499"
   height="416"
   inkscape:version="0.92.2 (5c3e80d, 2017-08-06)"
   inkscape:export-filename="C:\Users\adriana46\Documents\0esign\icons-travel\icons-travel-dl\my-icons-travel\airplane-ticket.png"
   inkscape:export-xdpi="50"
   inkscape:export-ydpi="50"><metadata
     id="metadata18057"><rdf:RDF><cc:Work
         rdf:about=""><dc:format>image/svg+xml</dc:format><dc:type
           rdf:resource="http://purl.org/dc/dcmitype/StillImage" /><dc:title></dc:title></cc:Work></rdf:RDF></metadata><defs
     id="defs18055" /><sodipodi:namedview
     pagecolor="#ffffff"
     bordercolor="#666666"
     borderopacity="1"
     objecttolerance="10"
     gridtolerance="10"
     guidetolerance="10"
     inkscape:pageopacity="0"
     inkscape:pageshadow="2"
     inkscape:window-width="1920"
     inkscape:window-height="1001"
     id="namedview18053"
     showgrid="true"
     inkscape:zoom="1.0883296"
     inkscape:cx="71.129703"
     inkscape:cy="187.22387"
     inkscape:window-x="-9"
     inkscape:window-y="-9"
     inkscape:window-maximized="1"
     inkscape:current-layer="Layer_1"><inkscape:grid
       type="xygrid"
       id="grid18790" /></sodipodi:namedview><g
     id="g18022"
     transform="translate(0,-44)" /><g
     id="g18024"
     transform="translate(0,-44)" /><g
     id="g18026"
     transform="translate(0,-44)" /><g
     id="g18028"
     transform="translate(0,-44)" /><g
     id="g18030"
     transform="translate(0,-44)" /><g
     id="g18032"
     transform="translate(0,-44)" /><g
     id="g18034"
     transform="translate(0,-44)" /><g
     id="g18036"
     transform="translate(0,-44)" /><g
     id="g18038"
     transform="translate(0,-44)" /><g
     id="g18040"
     transform="translate(0,-44)" /><g
     id="g18042"
     transform="translate(0,-44)" /><g
     id="g18044"
     transform="translate(0,-44)" /><g
     id="g18046"
     transform="translate(0,-44)" /><g
     id="g18048"
     transform="translate(0,-44)" /><g
     id="g18050"
     transform="translate(0,-44)" /><g
     id="g20700"
     transform="translate(-0.26114808,33.036943)"><path
       inkscape:connector-curvature="0"
       d="M 484.69367,232.43481 79.004822,341.13881 C 68.335205,343.99772 57.36884,337.66629 54.509924,326.99667 L 2.7461155,133.81151 c -2.85891505,-10.66962 3.472519,-21.63598 14.1421365,-24.4949 L 422.5771,0.61260721 C 433.24671,-2.2463078 444.21308,4.0851262 447.072,14.754743 l 51.7638,193.185167 c 2.85892,10.66962 -3.47251,21.63598 -14.14213,24.4949 z"
       style="fill:#9c9996;fill-opacity:1"
       id="path18602" /><path
       id="XMLID_997_"
       style="fill:#cccccc;fill-opacity:1"
       d="M 440,350 H 20 C 8.954,350 0,341.046 0,330 V 130 c 0,-11.046 8.954,-20 20,-20 h 420 c 11.046,0 20,8.954 20,20 v 200 c 0,11.046 -8.954,20 -20,20 z"
       inkscape:connector-curvature="0" /><path
       style="opacity:1;fill:#e6e6e6;fill-opacity:1"
       d="m 344,110 v 240 h 96 c 11.046,0 20,-8.954 20,-20 V 130 c 0,-11.046 -8.954,-20 -20,-20 z"
       id="path18797"
       inkscape:connector-curvature="0" /><path
       id="XMLID_977_"
       style="fill:#666666;stroke-width:0.52940899"
       d="m 117.64682,232.15211 v 1.10011 0 c 0,2.02499 -1.40611,3.77786 -3.38292,4.21727 l -3.9531,0.87829 c -4.87745,1.0837 -9.85865,1.63058 -14.85469,1.63058 H 83.61217 L 65.7748,260.04561 c -0.60671,0.68241 -1.476,1.07258 -2.3887,1.07258 v 0 c -2.18169,0 -3.72174,-2.13722 -3.03192,-4.20668 L 66.04215,239.8476 C 52.64387,239.06407 39.736345,234.37033 28.952284,226.28255 v 0 c -0.835408,-0.83541 -1.304464,-1.96781 -1.304464,-3.14893 0,-1.50246 1.21817,-2.72063 2.720633,-2.72063 h 2.022872 l -4.602682,-15.34227 c -0.631585,-2.1044 0.944465,-4.22257 3.142042,-4.22257 0.929642,0 1.815873,0.39441 2.437929,1.08582 L 50,220.41299 h 40.61096 c 3.64869,0 7.26932,0.63794 10.6983,1.8847 l 12.66134,4.60427 c 2.20658,0.80311 3.67622,2.90116 3.67622,5.25015 z M 64.72763,216.51495 H 80.22449 L 65.77427,200.25839 c -0.60671,-0.68241 -1.47599,-1.07258 -2.3887,-1.07258 v 0 c -2.18169,0 -3.72174,2.13722 -3.03192,4.20668 z"
       inkscape:connector-curvature="0" /><path
       id="XMLID_975_"
       style="fill:#666666;fill-opacity:1"
       d="m 270,315 v 0 c 0,2.761 -2.239,5 -5,5 H 165 c -2.761,0 -5,-2.239 -5,-5 v 0 c 0,-2.761 2.239,-5 5,-5 h 100 c 2.761,0 5,2.239 5,5 z m 45,-25 H 165 c -2.761,0 -5,2.239 -5,5 v 0 c 0,2.761 2.239,5 5,5 h 150 c 2.761,0 5,-2.239 5,-5 v 0 c 0,-2.761 -2.239,-5 -5,-5 z"
       inkscape:connector-curvature="0" /><path
       id="XMLID_973_"
       style="fill:#9c9996;fill-opacity:1;stroke-width:0.93333334"
       d="m 430,187 v 0 c 0,2.57693 -2.08973,4.66667 -4.66667,4.66667 H 378.66667 C 376.08973,191.66667 374,189.57693 374,187 v 0 c 0,-2.57693 2.08973,-4.66667 4.66667,-4.66667 h 46.66666 c 2.57694,0 4.66667,2.08974 4.66667,4.66667 z m -4.66667,-23.33333 h -46.66666 c -2.57694,0 -4.66667,2.08973 -4.66667,4.66666 v 0 c 0,2.57694 2.08973,4.66667 4.66667,4.66667 h 46.66666 C 427.91027,173 430,170.91027 430,168.33333 v 0 c 0,-2.57693 -2.08973,-4.66666 -4.66667,-4.66666 z m 0,149.33333 H 378.66667 C 376.08973,313 374,315.08973 374,317.66667 v 0 c 0,2.57693 2.08973,4.66666 4.66667,4.66666 h 46.66666 c 2.57694,0 4.66667,-2.08973 4.66667,-4.66666 v 0 C 430,315.08973 427.91027,313 425.33333,313 Z m 0,-18.66667 H 378.66667 C 376.08973,294.33333 374,296.42307 374,299 v 0 c 0,2.57693 2.08973,4.66667 4.66667,4.66667 h 46.66666 C 427.91027,303.66667 430,301.57693 430,299 v 0 c 0,-2.57693 -2.08973,-4.66667 -4.66667,-4.66667 z"
       inkscape:connector-curvature="0" /><path
       style="opacity:1;fill:#e95454;fill-opacity:1;fill-rule:nonzero;stroke:none;stroke-width:1.54848397;stroke-miterlimit:4;stroke-dasharray:6.19393575, 1.54848393;stroke-dashoffset:0;stroke-opacity:1;paint-order:normal"
       d="M 344,110.45117 H 21.267578 c -1.677777,0.2655 -3.305605,0.63456 -4.851562,1.1211 -1.607866,0.50601 -3.134505,1.12493 -4.564454,1.84375 -1.429947,0.71881 -2.764463,1.53659 -3.9804682,2.4414 -1.2160052,0.90481 -2.3132575,1.89694 -3.2792969,2.96094 -0.9660394,1.064 -1.7984657,2.20009 -2.4785157,3.39648 -0.6800498,1.19639 -1.20836942,2.45194 -1.5664062,3.75391 C 0.18883823,127.27072 0,128.61925 0,130 v 18.83789 h 344 z"
       id="path19430"
       inkscape:connector-curvature="0" /><path
       style="opacity:1;fill:#e95454;fill-opacity:1;fill-rule:nonzero;stroke:none;stroke-width:1.54848397;stroke-miterlimit:4;stroke-dasharray:6.19393575, 1.54848393;stroke-dashoffset:0;stroke-opacity:1;paint-order:normal"
       d="m 344,110.45117 v 38.38672 H 460 V 130 c 0,-1.38075 -0.13984,-2.72928 -0.40625,-4.03125 -0.26641,-1.30197 -0.66,-2.55752 -1.16602,-3.75391 -0.50601,-1.19639 -1.12493,-2.33248 -1.84375,-3.39648 -0.71881,-1.064 -1.53659,-2.05613 -2.4414,-2.96094 -0.90481,-0.90481 -1.89694,-1.72259 -2.96094,-2.4414 -1.064,-0.71882 -2.20009,-1.33774 -3.39648,-1.84375 -1.15033,-0.48654 -2.36097,-0.8556 -3.60938,-1.1211 z"
       id="rect18769"
       inkscape:connector-curvature="0" /><path
       style="fill:none;fill-opacity:1;stroke:#d24c4c;stroke-width:6.4460001;stroke-linecap:butt;stroke-linejoin:miter;stroke-miterlimit:4;stroke-dasharray:51.568, 12.892, 6.446, 12.892;stroke-dashoffset:0;stroke-opacity:1"
       d="M 345,114 V 345 Z"
       id="path18792"
       inkscape:connector-curvature="0" /><path
       inkscape:connector-curvature="0"
       d="m 270,173 v 0 c 0,-2.761 -2.239,-5 -5,-5 H 165 c -2.761,0 -5,2.239 -5,5 v 0 c 0,2.761 2.239,5 5,5 h 100 c 2.761,0 5,-2.239 5,-5 z m 45,25 H 165 c -2.761,0 -5,-2.239 -5,-5 v 0 c 0,-2.761 2.239,-5 5,-5 h 150 c 2.761,0 5,2.239 5,5 v 0 c 0,2.761 -2.239,5 -5,5 z"
       style="fill:#666666;fill-opacity:1"
       id="path18802" /><path
       inkscape:connector-curvature="0"
       d="m 270,256 v 0 c 0,2.761 -2.239,5 -5,5 H 165 c -2.761,0 -5,-2.239 -5,-5 v 0 c 0,-2.761 2.239,-5 5,-5 h 100 c 2.761,0 5,2.239 5,5 z m 45,-25 H 165 c -2.761,0 -5,2.239 -5,5 v 0 c 0,2.761 2.239,5 5,5 h 150 c 2.761,0 5,-2.239 5,-5 v 0 c 0,-2.761 -2.239,-5 -5,-5 z"
       style="fill:#666666;fill-opacity:1"
       id="path18804" /><g
       id="g20072"
       transform="matrix(0.09077333,0,0,0.09077333,24.147756,280.81924)"><g
         id="g19989"><path
           id="path19981"
           d="M 67.2,409.6 H 9.6 C 4.298,409.6 0,405.302 0,400 V 112 c 0,-5.302 4.298,-9.6 9.6,-9.6 h 57.6 c 5.302,0 9.6,4.298 9.6,9.6 v 288 c 0,5.302 -4.298,9.6 -9.6,9.6 z"
           style="fill:#88888f"
           inkscape:connector-curvature="0" /><path
           id="path19983"
           d="m 284.8,409.6 h -83.2 c -5.302,0 -9.6,-4.298 -9.6,-9.6 V 112 c 0,-5.302 4.298,-9.6 9.6,-9.6 h 83.2 c 5.302,0 9.6,4.298 9.6,9.6 v 288 c 0,5.302 -4.298,9.6 -9.6,9.6 z"
           style="fill:#88888f"
           inkscape:connector-curvature="0" /><path
           id="path19985"
           d="m 374.4,409.6 h -32 c -5.302,0 -9.6,-4.298 -9.6,-9.6 V 112 c 0,-5.302 4.298,-9.6 9.6,-9.6 h 32 c 5.302,0 9.6,4.298 9.6,9.6 v 288 c 0,5.302 -4.298,9.6 -9.6,9.6 z"
           style="fill:#88888f"
           inkscape:connector-curvature="0" /><path
           id="path19987"
           d="m 502.4,409.6 h -32 c -5.302,0 -9.6,-4.298 -9.6,-9.6 V 112 c 0,-5.302 4.298,-9.6 9.6,-9.6 h 32 c 5.302,0 9.6,4.298 9.6,9.6 v 288 c 0,5.302 -4.298,9.6 -9.6,9.6 z"
           style="fill:#88888f"
           inkscape:connector-curvature="0" /></g><g
         id="g20005"><path
           id="path19991"
           d="M 67.2,102.4 H 41.6 c 5.302,0 9.6,4.298 9.6,9.6 v 288 c 0,5.302 -4.298,9.6 -9.6,9.6 h 25.6 c 5.302,0 9.6,-4.298 9.6,-9.6 V 112 c 0,-5.302 -4.298,-9.6 -9.6,-9.6 z"
           style="fill:#797781"
           inkscape:connector-curvature="0" /><path
           id="path19993"
           d="m 284.8,102.4 h -25.6 c 5.302,0 9.6,4.298 9.6,9.6 v 288 c 0,5.302 -4.298,9.6 -9.6,9.6 h 25.6 c 5.302,0 9.6,-4.298 9.6,-9.6 V 112 c 0,-5.302 -4.298,-9.6 -9.6,-9.6 z"
           style="fill:#797781"
           inkscape:connector-curvature="0" /><path
           id="path19995"
           d="m 374.4,102.4 h -25.6 c 5.302,0 9.6,4.298 9.6,9.6 v 288 c 0,5.302 -4.298,9.6 -9.6,9.6 h 25.6 c 5.302,0 9.6,-4.298 9.6,-9.6 V 112 c 0,-5.302 -4.298,-9.6 -9.6,-9.6 z"
           style="fill:#797781"
           inkscape:connector-curvature="0" /><path
           id="path19997"
           d="m 502.4,102.4 h -25.6 c 5.302,0 9.6,4.298 9.6,9.6 v 288 c 0,5.302 -4.298,9.6 -9.6,9.6 h 25.6 c 5.302,0 9.6,-4.298 9.6,-9.6 V 112 c 0,-5.302 -4.298,-9.6 -9.6,-9.6 z"
           style="fill:#797781"
           inkscape:connector-curvature="0" /><path
           id="path19999"
           d="m 115.2,409.6 c -5.302,0 -9.6,-4.298 -9.6,-9.6 V 112 c 0,-5.302 4.298,-9.6 9.6,-9.6 5.302,0 9.6,4.298 9.6,9.6 v 288 c 0,5.302 -4.298,9.6 -9.6,9.6 z"
           style="fill:#797781"
           inkscape:connector-curvature="0" /><path
           id="path20001"
           d="m 422.4,409.6 c -5.302,0 -9.6,-4.298 -9.6,-9.6 V 112 c 0,-5.302 4.298,-9.6 9.6,-9.6 5.302,0 9.6,4.298 9.6,9.6 v 288 c 0,5.302 -4.298,9.6 -9.6,9.6 z"
           style="fill:#797781"
           inkscape:connector-curvature="0" /><path
           id="path20003"
           d="m 153.6,409.6 c -5.302,0 -9.6,-4.298 -9.6,-9.6 V 112 c 0,-5.302 4.298,-9.6 9.6,-9.6 5.302,0 9.6,4.298 9.6,9.6 v 288 c 0,5.302 -4.298,9.6 -9.6,9.6 z"
           style="fill:#797781"
           inkscape:connector-curvature="0" /></g><g
         id="g20007" /><g
         id="g20009" /><g
         id="g20011" /><g
         id="g20013" /><g
         id="g20015" /><g
         id="g20017" /><g
         id="g20019" /><g
         id="g20021" /><g
         id="g20023" /><g
         id="g20025" /><g
         id="g20027" /><g
         id="g20029" /><g
         id="g20031" /><g
         id="g20033" /><g
         id="g20035" /></g><g
       transform="matrix(0.09077333,0,0,0.09077333,74.147756,280.81924)"
       id="g20130"><g
         id="g20082"><path
           inkscape:connector-curvature="0"
           style="fill:#88888f"
           d="M 67.2,409.6 H 9.6 C 4.298,409.6 0,405.302 0,400 V 112 c 0,-5.302 4.298,-9.6 9.6,-9.6 h 57.6 c 5.302,0 9.6,4.298 9.6,9.6 v 288 c 0,5.302 -4.298,9.6 -9.6,9.6 z"
           id="path20074" /><path
           inkscape:connector-curvature="0"
           style="fill:#88888f"
           d="m 284.8,409.6 h -83.2 c -5.302,0 -9.6,-4.298 -9.6,-9.6 V 112 c 0,-5.302 4.298,-9.6 9.6,-9.6 h 83.2 c 5.302,0 9.6,4.298 9.6,9.6 v 288 c 0,5.302 -4.298,9.6 -9.6,9.6 z"
           id="path20076" /><path
           inkscape:connector-curvature="0"
           style="fill:#88888f"
           d="m 374.4,409.6 h -32 c -5.302,0 -9.6,-4.298 -9.6,-9.6 V 112 c 0,-5.302 4.298,-9.6 9.6,-9.6 h 32 c 5.302,0 9.6,4.298 9.6,9.6 v 288 c 0,5.302 -4.298,9.6 -9.6,9.6 z"
           id="path20078" /><path
           inkscape:connector-curvature="0"
           style="fill:#88888f"
           d="m 502.4,409.6 h -32 c -5.302,0 -9.6,-4.298 -9.6,-9.6 V 112 c 0,-5.302 4.298,-9.6 9.6,-9.6 h 32 c 5.302,0 9.6,4.298 9.6,9.6 v 288 c 0,5.302 -4.298,9.6 -9.6,9.6 z"
           id="path20080" /></g><g
         id="g20098"><path
           inkscape:connector-curvature="0"
           style="fill:#797781"
           d="M 67.2,102.4 H 41.6 c 5.302,0 9.6,4.298 9.6,9.6 v 288 c 0,5.302 -4.298,9.6 -9.6,9.6 h 25.6 c 5.302,0 9.6,-4.298 9.6,-9.6 V 112 c 0,-5.302 -4.298,-9.6 -9.6,-9.6 z"
           id="path20084" /><path
           inkscape:connector-curvature="0"
           style="fill:#797781"
           d="m 284.8,102.4 h -25.6 c 5.302,0 9.6,4.298 9.6,9.6 v 288 c 0,5.302 -4.298,9.6 -9.6,9.6 h 25.6 c 5.302,0 9.6,-4.298 9.6,-9.6 V 112 c 0,-5.302 -4.298,-9.6 -9.6,-9.6 z"
           id="path20086" /><path
           inkscape:connector-curvature="0"
           style="fill:#797781"
           d="m 374.4,102.4 h -25.6 c 5.302,0 9.6,4.298 9.6,9.6 v 288 c 0,5.302 -4.298,9.6 -9.6,9.6 h 25.6 c 5.302,0 9.6,-4.298 9.6,-9.6 V 112 c 0,-5.302 -4.298,-9.6 -9.6,-9.6 z"
           id="path20088" /><path
           inkscape:connector-curvature="0"
           style="fill:#797781"
           d="m 502.4,102.4 h -25.6 c 5.302,0 9.6,4.298 9.6,9.6 v 288 c 0,5.302 -4.298,9.6 -9.6,9.6 h 25.6 c 5.302,0 9.6,-4.298 9.6,-9.6 V 112 c 0,-5.302 -4.298,-9.6 -9.6,-9.6 z"
           id="path20090" /><path
           inkscape:connector-curvature="0"
           style="fill:#797781"
           d="m 115.2,409.6 c -5.302,0 -9.6,-4.298 -9.6,-9.6 V 112 c 0,-5.302 4.298,-9.6 9.6,-9.6 5.302,0 9.6,4.298 9.6,9.6 v 288 c 0,5.302 -4.298,9.6 -9.6,9.6 z"
           id="path20092" /><path
           inkscape:connector-curvature="0"
           style="fill:#797781"
           d="m 422.4,409.6 c -5.302,0 -9.6,-4.298 -9.6,-9.6 V 112 c 0,-5.302 4.298,-9.6 9.6,-9.6 5.302,0 9.6,4.298 9.6,9.6 v 288 c 0,5.302 -4.298,9.6 -9.6,9.6 z"
           id="path20094" /><path
           inkscape:connector-curvature="0"
           style="fill:#797781"
           d="m 153.6,409.6 c -5.302,0 -9.6,-4.298 -9.6,-9.6 V 112 c 0,-5.302 4.298,-9.6 9.6,-9.6 5.302,0 9.6,4.298 9.6,9.6 v 288 c 0,5.302 -4.298,9.6 -9.6,9.6 z"
           id="path20096" /></g><g
         id="g20100" /><g
         id="g20102" /><g
         id="g20104" /><g
         id="g20106" /><g
         id="g20108" /><g
         id="g20110" /><g
         id="g20112" /><g
         id="g20114" /><g
         id="g20116" /><g
         id="g20118" /><g
         id="g20120" /><g
         id="g20122" /><g
         id="g20124" /><g
         id="g20126" /><g
         id="g20128" /></g><g
       transform="matrix(0.10345707,0,0,0.10345707,375.51499,216.13369)"
       id="g20580"><g
         id="g20462"><path
           inkscape:connector-curvature="0"
           style="fill:#7f838c"
           d="M 227,0 H 15 C 6.709,0 0,6.709 0,15 v 211 c 0,8.291 6.709,15 15,15 h 212 c 8.291,0 15,-6.709 15,-15 V 15 C 242,6.709 235.291,0 227,0 Z M 212,211 H 30 V 30 h 182 z"
           id="path20450" /><path
           inkscape:connector-curvature="0"
           style="fill:#7f838c"
           d="M 167,60 H 75 c -8.291,0 -15,6.709 -15,15 v 91 c 0,8.291 6.709,15 15,15 h 92 c 8.291,0 15,-6.709 15,-15 V 75 c 0,-8.291 -6.709,-15 -15,-15 z m -15,91 H 90 V 90 h 62 z"
           id="path20452" /><path
           inkscape:connector-curvature="0"
           style="fill:#7f838c"
           d="m 422,377 v -76 h 16.831 c 8.291,0 15,-6.709 15,-15 0,-8.291 -6.709,-15 -15,-15 H 407 c -8.291,0 -15,6.709 -15,15 v 75 h -90 v -60 h 30 v 15 c 0,8.291 6.709,15 15,15 8.291,0 15,-6.709 15,-15 v -30 c 0,-8.291 -6.709,-15 -15,-15 h -60 c -8.291,0 -15,6.709 -15,15 v 211 c 0,8.291 6.709,15 15,15 8.291,0 15,-6.709 15,-15 V 392 h 105 c 8.291,0 15,-6.709 15,-15 z"
           id="path20454" /><path
           inkscape:connector-curvature="0"
           style="fill:#7f838c"
           d="m 497,392 h -60 c -8.291,0 -15,6.709 -15,15 v 15 h -75 c -8.291,0 -15,6.709 -15,15 v 60 c 0,8.291 6.709,15 15,15 h 30 c 8.291,0 15,-6.709 15,-15 0,-8.291 -6.709,-15 -15,-15 h -15 v -30 h 75 c 8.291,0 15,-6.709 15,-15 v -15 h 45 c 8.291,0 15,-6.709 15,-15 0,-8.291 -6.709,-15 -15,-15 z"
           id="path20456" /><path
           inkscape:connector-curvature="0"
           style="fill:#7f838c"
           d="m 497,452 c -8.291,0 -15,6.709 -15,15 v 15 h -45 c -8.291,0 -15,6.709 -15,15 0,8.291 6.709,15 15,15 h 60 c 8.291,0 15,-6.709 15,-15 v -30 c 0,-8.291 -6.709,-15 -15,-15 z"
           id="path20458" /><path
           inkscape:connector-curvature="0"
           style="fill:#7f838c"
           d="m 497,271 c -8.291,0 -15,6.709 -15,15 v 45 h -15 c -8.291,0 -15,6.709 -15,15 0,8.291 6.709,15 15,15 h 30 c 8.291,0 15,-6.709 15,-15 v -60 c 0,-8.291 -6.709,-15 -15,-15 z"
           id="path20460" /></g><g
         id="g20476"><path
           inkscape:connector-curvature="0"
           style="fill:#757982"
           d="m 497,452 c -8.291,0 -15,6.709 -15,15 v 15 h -45 c -8.291,0 -15,6.709 -15,15 0,8.291 6.709,15 15,15 h 60 c 8.291,0 15,-6.709 15,-15 v -30 c 0,-8.291 -6.709,-15 -15,-15 z"
           id="path20464" /><path
           inkscape:connector-curvature="0"
           style="fill:#757982"
           d="m 497,271 c -8.291,0 -15,6.709 -15,15 v 45 h -15 c -8.291,0 -15,6.709 -15,15 0,8.291 6.709,15 15,15 h 30 c 8.291,0 15,-6.709 15,-15 v -60 c 0,-8.291 -6.709,-15 -15,-15 z"
           id="path20466" /><path
           inkscape:connector-curvature="0"
           style="fill:#757982"
           d="M 227,0 H 120 v 30 h 92 v 181 h -92 v 30 h 107 c 8.291,0 15,-6.709 15,-15 V 15 C 242,6.709 235.291,0 227,0 Z"
           id="path20468" /><path
           inkscape:connector-curvature="0"
           style="fill:#757982"
           d="m 167,60 h -47 v 30 h 32 v 61 h -32 v 30 h 47 c 8.291,0 15,-6.709 15,-15 V 75 c 0,-8.291 -6.709,-15 -15,-15 z"
           id="path20470" /><path
           inkscape:connector-curvature="0"
           style="fill:#757982"
           d="m 497,392 h -60 c -8.291,0 -15,6.709 -15,15 v 15 h -30 v 30 h 45 c 8.291,0 15,-6.709 15,-15 v -15 h 45 c 8.291,0 15,-6.709 15,-15 0,-8.291 -6.709,-15 -15,-15 z"
           id="path20472" /><path
           inkscape:connector-curvature="0"
           style="fill:#757982"
           d="m 407,392 c 8.291,0 15,-6.709 15,-15 v -76 h 16.831 c 8.291,0 15,-6.709 15,-15 0,-8.291 -6.709,-15 -15,-15 H 407 c -8.291,0 -15,6.709 -15,15 v 75 31 z"
           id="path20474" /></g><g
         id="g20482"><path
           inkscape:connector-curvature="0"
           style="fill:#7f838c"
           d="M 497,0 H 285 c -8.291,0 -15,6.709 -15,15 v 211 c 0,8.291 6.709,15 15,15 h 212 c 8.291,0 15,-6.709 15,-15 V 15 C 512,6.709 505.291,0 497,0 Z M 482,211 H 300 V 30 h 182 z"
           id="path20478" /><path
           inkscape:connector-curvature="0"
           style="fill:#7f838c"
           d="m 437,60 h -92 c -8.291,0 -15,6.709 -15,15 v 91 c 0,8.291 6.709,15 15,15 h 92 c 8.291,0 15,-6.709 15,-15 V 75 c 0,-8.291 -6.709,-15 -15,-15 z m -15,91 H 360 V 90 h 62 z"
           id="path20480" /></g><g
         id="g20488"><path
           inkscape:connector-curvature="0"
           style="fill:#757982"
           d="M 497,0 H 390 v 30 h 92 v 181 h -92 v 30 h 107 c 8.291,0 15,-6.709 15,-15 V 15 C 512,6.709 505.291,0 497,0 Z"
           id="path20484" /><path
           inkscape:connector-curvature="0"
           style="fill:#757982"
           d="m 437,60 h -47 v 30 h 32 v 61 h -32 v 30 h 47 c 8.291,0 15,-6.709 15,-15 V 75 c 0,-8.291 -6.709,-15 -15,-15 z"
           id="path20486" /></g><g
         id="g20494"><path
           inkscape:connector-curvature="0"
           style="fill:#7f838c"
           d="M 227,271 H 15 c -8.291,0 -15,6.709 -15,15 v 211 c 0,8.291 6.709,15 15,15 h 212 c 8.291,0 15,-6.709 15,-15 V 286 c 0,-8.291 -6.709,-15 -15,-15 z M 212,482 H 30 V 301 h 182 z"
           id="path20490" /><path
           inkscape:connector-curvature="0"
           style="fill:#7f838c"
           d="M 167,331 H 75 c -8.291,0 -15,6.709 -15,15 v 91 c 0,8.291 6.709,15 15,15 h 92 c 8.291,0 15,-6.709 15,-15 v -91 c 0,-8.291 -6.709,-15 -15,-15 z m -15,91 H 90 v -61 h 62 z"
           id="path20492" /></g><g
         id="g20500"><path
           inkscape:connector-curvature="0"
           style="fill:#757982"
           d="M 227,271 H 120 v 30 h 92 v 181 h -92 v 30 h 107 c 8.291,0 15,-6.709 15,-15 V 286 c 0,-8.291 -6.709,-15 -15,-15 z"
           id="path20496" /><path
           inkscape:connector-curvature="0"
           style="fill:#757982"
           d="m 167,331 h -47 v 30 h 32 v 61 h -32 v 30 h 47 c 8.291,0 15,-6.709 15,-15 v -91 c 0,-8.291 -6.709,-15 -15,-15 z"
           id="path20498" /></g><g
         id="g20502" /><g
         id="g20504" /><g
         id="g20506" /><g
         id="g20508" /><g
         id="g20510" /><g
         id="g20512" /><g
         id="g20514" /><g
         id="g20516" /><g
         id="g20518" /><g
         id="g20520" /><g
         id="g20522" /><g
         id="g20524" /><g
         id="g20526" /><g
         id="g20528" /><g
         id="g20530" /></g><path
       id="path20582"
       d="M 20,110 C 8.954,110 0,118.954 0,130 v 200 c 0,6.77249 3.3750925,12.7471 8.5253906,16.36523 A 619.05597,562.01221 0 0 1 451.83789,113.90625 C 448.52098,111.46221 444.43632,110 440,110 Z"
       style="opacity:0.1;fill:#f9f9f9;fill-opacity:1"
       inkscape:connector-curvature="0" /></g></svg>